<?xml version="1.0" standalone="no"?>
<!DOCTYPE svg PUBLIC "-//W3C//DTD SVG 20010904//EN"
 "http://www.w3.org/TR/2001/REC-SVG-20010904/DTD/svg10.dtd">
<svg version="1.0" xmlns="http://www.w3.org/2000/svg"
 width="2448.000000pt" height="2448.000000pt" viewBox="0 0 2448.000000 2448.000000"
 preserveAspectRatio="xMidYMid meet">
<metadata>
Created by potrace 1.11, written by Peter Selinger 2001-2013
</metadata>
<g transform="translate(0.000000,2448.000000) scale(0.100000,-0.100000)"
fill="#000000" stroke="none">
<path d="M11804 15121 c-2 -2 -50 -5 -106 -7 -106 -3 -229 -10 -333 -19 -116
-9 -190 -16 -220 -20 -16 -2 -51 -7 -77 -10 -76 -8 -141 -17 -163 -21 -29 -6
-74 -13 -120 -19 -22 -3 -56 -10 -75 -15 -19 -5 -51 -11 -70 -14 -19 -3 -91
-21 -160 -41 -69 -19 -133 -37 -143 -40 -30 -7 -171 -56 -202 -69 -16 -8 -48
-19 -70 -26 -22 -7 -68 -26 -103 -41 -34 -16 -65 -29 -68 -29 -11 0 -249 -115
-252 -122 -2 -5 -12 -8 -22 -8 -10 0 -21 -4 -25 -9 -3 -5 -31 -22 -63 -38 -31
-15 -59 -30 -62 -33 -3 -3 -27 -19 -55 -35 -59 -34 -223 -142 -280 -185 -22
-16 -52 -38 -66 -47 -127 -88 -386 -342 -480 -473 -18 -25 -36 -46 -41 -48 -4
-2 -8 -10 -8 -17 0 -7 -3 -15 -7 -17 -59 -26 -360 -602 -387 -739 -2 -13 -12
-41 -20 -61 -9 -21 -13 -38 -10 -38 4 0 1 -7 -6 -15 -7 -8 -10 -15 -7 -15 3 0
1 -16 -5 -36 -5 -20 -11 -44 -13 -53 -2 -9 -9 -38 -15 -66 -6 -27 -14 -70 -16
-95 -3 -25 -7 -51 -10 -59 -17 -53 -24 -420 -11 -566 8 -85 32 -237 47 -295 5
-19 12 -49 15 -67 3 -18 10 -45 17 -60 6 -15 12 -32 13 -38 15 -66 60 -186
106 -281 16 -34 29 -64 29 -67 0 -8 126 -233 148 -265 12 -16 22 -32 22 -35 0
-3 30 -49 67 -102 38 -53 76 -108 85 -122 9 -14 20 -29 25 -32 4 -3 31 -33 58
-66 84 -100 288 -296 359 -344 12 -8 23 -17 26 -20 19 -22 322 -231 334 -231
3 0 24 -13 48 -28 24 -16 66 -39 93 -53 28 -13 52 -26 55 -30 7 -7 188 -94
263 -125 101 -43 112 -47 117 -49 3 -1 22 -9 44 -18 21 -9 42 -17 46 -17 4 0
25 -8 46 -17 22 -9 41 -17 44 -18 11 -1 216 -68 235 -76 39 -17 234 -65 340
-84 35 -7 149 -27 170 -30 48 -8 229 -31 300 -38 17 -2 36 -6 42 -10 7 -4 14
-3 18 3 4 6 11 8 16 5 5 -4 35 -8 67 -11 31 -2 77 -6 102 -9 213 -20 1096 -28
1350 -12 214 14 334 23 415 31 22 3 69 8 104 11 36 4 74 8 85 10 12 2 70 11
130 20 59 9 118 18 130 21 179 34 322 70 446 111 41 13 80 26 85 27 6 1 15 4
20 7 6 4 35 14 65 24 265 86 669 286 913 453 38 26 76 52 85 57 9 6 21 15 28
20 6 6 44 35 83 65 39 30 71 58 71 62 0 5 5 8 11 8 6 0 58 46 115 103 58 57
107 101 109 98 3 -2 5 1 5 7 0 7 8 20 18 30 68 70 178 212 253 327 301 459
433 882 433 1380 0 160 -9 274 -30 395 -24 144 -64 309 -91 380 -3 8 -7 20 -9
25 -11 38 -50 134 -62 153 -8 12 -11 22 -7 22 7 0 -144 298 -160 316 -5 6 -19
28 -30 50 -11 21 -26 43 -32 47 -7 4 -13 12 -13 18 0 5 -30 49 -67 97 -200
262 -431 486 -688 666 -44 31 -85 61 -92 66 -7 6 -14 10 -17 10 -2 0 -41 23
-86 50 -45 28 -85 50 -90 50 -5 0 -10 3 -12 8 -7 17 -353 181 -543 257 -11 4
-24 9 -30 11 -5 1 -41 14 -80 29 -56 22 -146 52 -175 60 -3 1 -36 11 -75 22
-98 30 -310 79 -380 88 -41 6 -100 16 -115 20 -8 2 -40 6 -70 10 -30 3 -71 8
-90 10 -19 3 -57 7 -85 10 -27 2 -68 7 -90 9 -42 5 -156 14 -260 21 -211 15
-1089 27 -1101 16z m676 -975 c19 -3 53 -8 75 -11 125 -18 392 -92 465 -130
14 -7 52 -26 85 -41 51 -24 152 -82 219 -126 105 -71 242 -196 334 -307 48
-57 172 -234 172 -245 0 -2 15 -31 34 -64 61 -109 161 -381 171 -467 2 -11 8
-38 13 -60 28 -103 42 -280 41 -510 0 -229 -8 -315 -45 -488 -26 -124 -62
-246 -91 -314 -9 -21 -17 -41 -17 -45 -1 -3 -4 -10 -8 -14 -5 -4 -8 -16 -8
-26 0 -10 -4 -18 -10 -18 -5 0 -10 -6 -10 -13 0 -16 -57 -125 -78 -149 -8 -10
-11 -18 -6 -18 5 0 4 -4 -2 -8 -5 -4 -20 -23 -32 -42 -11 -20 -29 -46 -39 -58
-10 -12 -29 -38 -43 -58 -14 -21 -77 -89 -140 -153 -147 -148 -340 -278 -535
-362 -41 -17 -186 -69 -208 -73 -12 -3 -58 -14 -102 -25 -89 -21 -143 -32
-195 -37 -19 -1 -64 -6 -100 -10 -121 -14 -416 -8 -550 10 -19 3 -55 8 -79 11
-56 8 -256 60 -312 81 -96 35 -197 80 -254 112 -33 18 -68 36 -77 39 -10 3
-18 9 -18 14 0 5 -5 9 -11 9 -6 0 -28 14 -49 30 -21 17 -42 30 -48 30 -6 0
-12 3 -14 8 -1 4 -25 25 -53 47 -130 102 -278 273 -378 435 -118 193 -220 472
-252 695 -1 11 -5 38 -8 60 -16 106 -20 163 -20 325 -1 160 6 305 16 355 3 11
8 40 12 65 13 86 15 95 24 128 5 17 8 32 6 32 -2 0 2 18 10 40 8 22 12 40 9
40 -3 0 -2 6 3 13 4 6 8 17 9 22 17 93 182 442 244 518 6 7 31 41 57 77 27 35
59 76 73 91 14 14 46 48 71 75 25 27 66 65 90 86 24 20 55 45 68 57 13 11 32
23 42 26 11 4 19 10 19 14 0 7 89 66 150 100 124 67 290 137 370 156 3 1 23 7
45 13 22 6 51 13 65 16 14 2 25 5 25 6 0 2 34 9 75 15 19 2 46 7 60 10 14 3
59 8 100 11 41 3 76 7 78 9 5 4 426 -4 462 -9z"/>
<path d="M32 14959 l-22 -8 0 -2726 c0 -1499 3 -2726 8 -2726 39 -6 2135 -2
2139 4 5 8 8 621 3 642 -1 6 -2 15 -1 20 3 14 3 608 1 620 -1 6 -2 15 -1 20 3
14 3 608 1 620 -1 6 -2 15 -1 20 3 15 3 928 1 940 -1 6 -2 15 -1 20 1 6 2 183
3 395 l0 385 20 -25 c18 -22 89 -105 143 -165 36 -39 78 -88 175 -200 52 -60
102 -116 110 -125 8 -9 40 -45 70 -80 30 -35 64 -73 75 -85 11 -12 42 -48 70
-81 27 -32 52 -61 55 -64 6 -5 156 -175 175 -197 10 -13 24 -29 95 -109 19
-21 62 -70 95 -109 33 -38 69 -79 80 -91 11 -11 43 -47 70 -79 28 -32 55 -63
60 -69 6 -6 39 -45 75 -86 36 -41 67 -77 70 -80 5 -5 122 -139 171 -195 14
-16 48 -55 75 -85 27 -31 72 -82 99 -114 28 -33 57 -66 66 -75 8 -9 62 -70
120 -136 57 -66 109 -125 114 -131 6 -6 30 -35 55 -64 25 -29 61 -69 80 -90
19 -21 54 -60 76 -86 23 -27 50 -58 60 -70 11 -11 44 -49 74 -84 30 -34 60
-68 65 -74 6 -6 39 -44 75 -85 36 -41 72 -82 80 -91 8 -9 38 -43 65 -74 28
-32 68 -79 90 -103 46 -53 52 -60 120 -139 28 -32 57 -65 65 -73 9 -9 43 -47
75 -86 33 -38 72 -82 87 -98 15 -15 38 -42 52 -59 l25 -32 1076 -1 1075 0 1
25 c1 31 1 5422 0 5432 -1 5 -19 7 -41 5 -22 -2 -40 1 -40 5 0 5 -5 6 -12 2
-15 -9 -468 -11 -468 -2 0 4 -10 4 -22 0 -28 -9 -500 -8 -516 2 -6 3 -13 3
-15 -1 -6 -9 -289 -9 -304 0 -6 4 -13 4 -17 0 -9 -10 -406 -9 -406 0 0 5 -5 5
-12 1 -6 -4 -75 -8 -152 -8 l-141 -1 -2 -1849 c-2 -1017 -5 -1852 -9 -1855 -3
-3 -10 2 -15 11 -5 9 -15 23 -22 30 -21 23 -90 101 -147 168 -30 35 -89 102
-130 150 -41 47 -97 112 -125 144 -27 32 -55 64 -60 70 -6 6 -53 60 -105 121
-52 60 -102 116 -110 125 -8 9 -37 43 -65 75 -27 32 -55 63 -60 69 -11 12
-144 164 -157 181 -5 6 -18 22 -31 36 -81 93 -125 144 -147 169 -14 15 -43 49
-65 74 -22 26 -49 58 -60 70 -29 32 -120 137 -145 166 -12 14 -31 36 -43 50
-12 14 -49 57 -82 95 -33 38 -64 75 -70 81 -5 6 -37 42 -70 80 -33 37 -67 75
-75 84 -8 9 -31 36 -51 60 -21 25 -50 59 -65 77 -16 18 -49 55 -74 84 -25 29
-58 67 -75 85 -16 18 -44 50 -62 71 -17 21 -44 52 -60 70 -15 17 -42 49 -60
70 -17 21 -46 54 -65 74 -18 20 -49 55 -68 78 -19 23 -51 60 -70 81 -19 21
-46 51 -59 66 -89 106 -199 232 -218 251 -13 12 -23 25 -23 29 0 4 -8 14 -18
23 -10 9 -60 66 -112 126 -91 106 -150 173 -178 201 -7 8 -12 14 -10 14 5 0
-86 102 -142 161 l-36 37 -147 -2 c-81 0 -147 2 -147 6 0 4 -10 4 -22 0 -28
-9 -500 -8 -516 2 -6 3 -13 3 -15 -1 -6 -9 -289 -9 -304 0 -6 4 -13 4 -17 0
-9 -10 -406 -9 -406 0 0 5 -5 5 -12 1 -14 -9 -429 -11 -479 -3 -19 3 -45 2
-57 -2z"/>
<path d="M16986 14962 c-4 -4 -28 -7 -54 -7 l-47 0 0 -233 c0 -127 -3 -232 -7
-232 -4 0 -5 -7 -1 -16 8 -22 9 -624 1 -624 -4 0 -5 -7 -1 -16 8 -22 9 -624 1
-624 -4 0 -5 -7 -1 -16 8 -22 9 -3184 1 -3184 -4 0 -5 -7 -1 -15 8 -22 10
-275 2 -307 -4 -14 -5 -29 -1 -32 3 -4 6 -41 6 -84 l1 -77 2645 1 c1455 0
2731 4 2835 8 293 12 348 15 375 20 14 3 48 7 75 10 28 4 68 9 90 12 22 3 51
7 65 8 14 2 36 6 50 9 14 4 41 8 60 11 32 4 47 7 108 21 12 3 30 7 40 9 9 2
37 9 62 16 25 7 52 14 60 15 8 2 44 13 80 25 36 12 70 23 75 25 48 10 265 120
353 179 116 77 162 116 263 222 75 79 161 206 220 327 26 53 48 100 49 102 1
7 11 37 21 65 5 14 11 34 14 45 2 11 13 61 24 110 18 79 20 117 17 305 -2 118
-6 231 -10 250 -11 56 -47 184 -57 202 -5 10 -9 22 -9 28 0 12 -59 135 -84
175 -66 104 -99 147 -166 214 -74 75 -147 141 -157 141 -2 0 -30 17 -61 38
-48 32 -114 67 -217 114 -12 5 -27 10 -35 12 -8 2 -24 6 -35 10 -94 35 -212
61 -312 68 -20 2 -15 18 5 19 9 0 24 2 32 4 8 2 26 5 40 8 98 19 183 53 325
131 23 13 113 74 135 92 35 28 200 192 200 198 0 4 9 17 21 29 62 66 171 281
198 392 20 77 37 195 37 243 -1 23 1 42 4 42 3 0 4 24 3 52 -1 29 -2 53 -3 53
0 0 -3 29 -5 65 -2 36 -9 90 -15 120 -6 30 -13 66 -16 80 -22 115 -99 296
-178 415 -59 89 -183 225 -205 225 -6 0 -11 4 -11 10 0 10 -163 126 -225 159
-22 12 -47 26 -55 32 -23 14 -192 90 -209 94 -17 4 -101 32 -136 46 -22 8 -64
22 -80 25 -5 1 -30 7 -55 14 -49 13 -72 19 -110 26 -14 2 -45 9 -70 14 -86 18
-222 39 -300 45 -30 3 -71 7 -90 10 -68 9 -227 17 -381 20 -86 1 -161 5 -166
8 -5 3 -14 3 -20 -1 -14 -9 -1136 -7 -1150 1 -6 4 -13 4 -17 0 -9 -9 -406 -10
-406 -1 0 4 -10 4 -22 0 -28 -9 -500 -8 -515 1 -6 4 -13 4 -17 0 -9 -10 -1046
-9 -1046 0 0 5 -5 5 -12 1 -15 -9 -628 -11 -628 -2 0 4 -10 4 -22 0 -28 -9
-1140 -8 -1155 1 -6 4 -13 3 -17 -1z m4094 -946 c85 -3 166 -8 180 -11 14 -3
51 -7 83 -9 31 -3 61 -7 66 -10 5 -3 33 -8 62 -12 30 -3 60 -11 67 -16 6 -6
12 -8 12 -5 0 8 118 -31 183 -62 34 -15 85 -46 114 -67 51 -39 133 -132 137
-157 1 -6 7 -21 13 -32 6 -11 17 -45 25 -75 23 -89 13 -342 -14 -377 -6 -7 -7
-13 -4 -13 4 0 -7 -27 -25 -61 -32 -60 -139 -169 -166 -169 -7 0 -13 -3 -13
-7 0 -9 -49 -33 -67 -33 -7 0 -13 -4 -13 -8 0 -7 -95 -39 -125 -43 -2 0 -19
-5 -37 -10 -85 -26 -181 -40 -378 -55 -94 -7 -2190 -11 -2191 -4 -1 3 -2 281
-3 618 -1 464 2 615 11 620 15 9 1874 7 2083 -2z m-1897 -2181 c59 0 107 4
107 8 0 5 5 5 11 1 10 -6 111 -9 134 -4 6 1 12 2 15 0 16 -6 113 -4 117 3 2 4
9 4 15 1 15 -10 188 -10 188 -1 0 5 5 5 11 1 14 -8 134 -8 148 1 6 3 11 2 11
-2 0 -10 63 -8 79 2 6 3 11 3 11 -2 0 -4 50 -8 110 -8 61 0 110 4 110 8 0 5 5
5 11 1 10 -6 111 -9 134 -4 6 1 12 2 15 0 16 -6 113 -4 117 3 2 4 9 4 15 1 15
-10 188 -10 188 -1 0 5 5 5 11 1 14 -8 134 -8 148 1 6 3 11 2 11 -2 0 -5 19
-7 43 -5 51 4 36 4 182 -2 179 -8 351 -24 420 -40 15 -4 78 -17 100 -21 11 -2
21 -4 23 -5 1 -2 5 -3 10 -4 142 -34 287 -106 368 -183 51 -50 124 -156 124
-183 0 -5 5 -21 11 -37 7 -15 13 -35 15 -43 28 -157 23 -313 -16 -424 -93
-272 -347 -398 -905 -453 -93 -10 -2279 -13 -2285 -4 -3 5 -5 321 -5 703 l0
693 33 2 c19 1 36 4 40 7 3 4 8 3 11 -1 3 -5 54 -8 114 -8z"/>
</g>
</svg>
