<?xml version="1.0" encoding="utf-8"?>
<!-- Generator: Adobe Illustrator 19.0.0, SVG Export Plug-In . SVG Version: 6.00 Build 0)  -->
<svg version="1.1" id="Layer_1" xmlns="http://www.w3.org/2000/svg" xmlns:xlink="http://www.w3.org/1999/xlink" x="0px" y="0px"
	 viewBox="0 0 13 12.6" style="enable-background:new 0 0 13 12.6;" xml:space="preserve">
<style type="text/css">
	.st0{clip-path:url(#SVGID_2_);}
	.st1{clip-path:url(#SVGID_2_);fill:#241F21;}
</style>
<g>
	<defs>
		<rect id="SVGID_1_" x="-15.3" y="-196.2" width="1440" height="812"/>
	</defs>
	<clipPath id="SVGID_2_">
		<use xlink:href="#SVGID_1_"  style="overflow:visible;"/>
	</clipPath>
	<g class="st0">
		<text transform="matrix(1 0 0 1 -1.3222 -169.2402)"><tspan x="0" y="0" style="font-family:'TimesNewRomanPSMT'; font-size:19px;">!&quot;</tspan><tspan x="14.1" y="0" style="font-family:'TimesNewRomanPSMT'; font-size:19px;">#</tspan><tspan x="23.3" y="0" style="font-family:'TimesNewRomanPSMT'; font-size:19px; letter-spacing:-1;">$</tspan><tspan x="31.4" y="0" style="font-family:'TimesNewRomanPSMT'; font-size:19px;">%&amp;%&apos;()*+,</tspan><tspan x="118.9" y="0" style="font-family:'TimesNewRomanPSMT'; font-size:19px;">#</tspan><tspan x="128.1" y="0" style="font-family:'TimesNewRomanPSMT'; font-size:19px;">$-%(./)0),#1,#234514,#67.87</tspan><tspan x="350.2" y="0" style="font-family:'TimesNewRomanPSMT'; font-size:19px; letter-spacing:-1;">9</tspan><tspan x="358.5" y="0" style="font-family:'TimesNewRomanPSMT'; font-size:19px;">,#:;..&lt;),=1#&gt;?24@#2?5#?1A?,#+&lt;BC7D)&apos;%C8</tspan><tspan x="718.5" y="0" style="font-family:'TimesNewRomanPSMT'; font-size:19px; letter-spacing:-1;">0</tspan><tspan x="726.8" y="0" style="font-family:'TimesNewRomanPSMT'; font-size:19px;">E87F</tspan></text>
	</g>
	<g class="st0">
		<text transform="matrix(1 0 0 1 -1.3222 -146.2314)" style="font-family:'TimesNewRomanPSMT'; font-size:19px;">GD7;H,#I)8%D77/,#&quot;C.H)&apos;()F</text>
	</g>
	<g class="st0">
		<text transform="matrix(1 0 0 1 -1.3222 -77.2231)"><tspan x="0" y="0" style="font-family:'TimesNewRomanPSMT'; font-size:19px;">JKL#&lt;.#)#F;&amp;H&lt;M&lt;.8&lt;*&amp;&lt;C)(0#8(%)H&lt;-%#.H;M&lt;7#7</tspan><tspan x="443.9" y="0" style="font-family:'TimesNewRomanPSMT'; font-size:19px;">N</tspan><tspan x="457.2" y="0" style="font-family:'TimesNewRomanPSMT'; font-size:19px;">N%(&lt;C&apos;#8(%)H&lt;-%#M&lt;(%8H&lt;7C,#*+7H7&apos;()*+0#</tspan></text>
	</g>
	<g class="st0">
		<text transform="matrix(1 0 0 1 -1.3222 -54.2143)"><tspan x="0" y="0" style="font-family:'TimesNewRomanPSMT'; font-size:19px;">)CM#&apos;()*+&lt;8#M%.&lt;&apos;CE</tspan><tspan x="187.3" y="0" style="font-family:'TimesNewRomanPSMT'; font-size:19px;">#</tspan><tspan x="196.4" y="0" style="font-family:'TimesNewRomanPSMT'; font-size:19px; letter-spacing:-1;">O</tspan><tspan x="208.7" y="0" style="font-family:'TimesNewRomanPSMT'; font-size:19px;">%#.H(&lt;-%#H7#8(%)H%#&lt;CH%&amp;&amp;&lt;&apos;%CH#)CM#%C&apos;)&apos;&lt;C&apos;#-&lt;.;)&amp;#87FF;C&lt;8)H&lt;7C#</tspan></text>
	</g>
	<g class="st0">
		<text transform="matrix(1 0 0 1 -1.3222 -31.2051)" style="font-family:'TimesNewRomanPSMT'; font-size:19px;">)CM#H7#%.H)D&amp;&lt;.+#87CH&lt;C;7;.#)CM#*(7&apos;(%..&lt;-%#8&amp;&lt;%CH#(%&amp;)H&lt;7C.+&lt;*.E#K;(#*(78%..#&lt;.#</text>
	</g>
	<path class="st0" d="M2.6-16v5.6c0,0.8,0.1,1.3,0.3,1.5c0.2,0.3,0.5,0.4,0.9,0.4h0.8v0.3h-5.1v-0.3h0.4c0.2,0,0.5-0.1,0.7-0.2
		C0.7-8.8,0.9-9,0.9-9.2C1-9.4,1.1-9.8,1.1-10.4V-16h-1.7v-0.7h1.7v-0.6c0-0.8,0.1-1.6,0.4-2.2c0.3-0.6,0.7-1.1,1.2-1.4
		c0.6-0.4,1.2-0.5,1.9-0.5c0.6,0,1.2,0.2,1.8,0.6c0.4,0.3,0.5,0.6,0.5,0.9c0,0.2-0.1,0.4-0.2,0.5C6.5-19.1,6.4-19,6.2-19
		c-0.1,0-0.3-0.1-0.4-0.2s-0.4-0.3-0.6-0.7c-0.2-0.3-0.4-0.6-0.6-0.7c-0.2-0.1-0.4-0.2-0.6-0.2c-0.3,0-0.5,0.1-0.7,0.2
		c-0.2,0.2-0.3,0.4-0.4,0.7c-0.1,0.3-0.1,1.1-0.1,2.5v0.6h2.2v0.7H2.6z M9.8-16.9c1.3,0,2.3,0.5,3.1,1.5c0.7,0.8,1,1.8,1,2.9
		c0,0.8-0.2,1.5-0.5,2.3c-0.4,0.8-0.9,1.4-1.5,1.8s-1.4,0.6-2.1,0.6c-1.3,0-2.3-0.5-3.1-1.5c-0.6-0.9-1-1.8-1-2.9
		c0-0.8,0.2-1.6,0.6-2.3c0.4-0.8,0.9-1.3,1.5-1.7C8.4-16.8,9-16.9,9.8-16.9z M11.1-15.5c-0.4-0.6-1-0.9-1.7-0.9
		c-0.3,0-0.7,0.1-1,0.3c-0.3,0.2-0.6,0.5-0.8,1c-0.2,0.5-0.3,1.1-0.3,1.9c0,1.2,0.2,2.3,0.7,3.2C8.6-9,9.2-8.6,10.1-8.6
		c0.6,0,1.1-0.2,1.5-0.7c0.4-0.5,0.6-1.3,0.6-2.6C12.1-13.4,11.8-14.6,11.1-15.5L11.1-15.5z M22.3-11.4c-0.2,1.1-0.7,2-1.3,2.6
		s-1.4,0.9-2.2,0.9c-1,0-1.8-0.4-2.5-1.2c-0.7-0.8-1.1-1.9-1.1-3.3c0-1.3,0.4-2.4,1.2-3.3c0.8-0.8,1.7-1.3,2.9-1.3
		c0.8,0,1.5,0.2,2.1,0.7c0.5,0.4,0.8,0.9,0.8,1.4c0,0.2-0.1,0.4-0.2,0.6c-0.2,0.1-0.4,0.2-0.6,0.2c-0.4,0-0.6-0.1-0.8-0.4
		c-0.1-0.1-0.2-0.4-0.2-0.7c0-0.4-0.2-0.6-0.4-0.8c-0.2-0.2-0.5-0.3-0.9-0.3c-0.6,0-1.1,0.2-1.5,0.7c-0.5,0.6-0.8,1.4-0.8,2.4
		c0,1,0.2,1.9,0.7,2.7c0.5,0.8,1.2,1.2,2,1.2c0.6,0,1.2-0.2,1.6-0.6c0.3-0.3,0.7-0.8,1-1.5L22.3-11.4z M31-16.7v5.1
		c0,1,0,1.6,0.1,1.8c0,0.2,0.1,0.4,0.2,0.5c0.1,0.1,0.2,0.1,0.4,0.1c0.2,0,0.4-0.1,0.6-0.2L32.4-9l-2.5,1h-0.4v-1.8
		c-0.7,0.8-1.3,1.3-1.7,1.5C27.4-8,27-7.9,26.6-7.9c-0.5,0-0.9-0.1-1.2-0.4C25-8.6,24.7-9,24.6-9.4c-0.1-0.4-0.2-1-0.2-1.8V-15
		c0-0.4,0-0.7-0.1-0.8c-0.1-0.2-0.2-0.3-0.4-0.4c-0.2-0.1-0.5-0.1-0.9-0.1v-0.3h3v5.7c0,0.8,0.1,1.3,0.4,1.6c0.3,0.2,0.6,0.4,1,0.4
		c0.3,0,0.6-0.1,0.9-0.3c0.3-0.2,0.7-0.5,1.2-1v-4.8c0-0.5-0.1-0.8-0.3-1c-0.2-0.2-0.5-0.3-1.1-0.3v-0.3H31z M38.5-16.9v2.9h-0.3
		c-0.2-0.9-0.5-1.5-0.9-1.9c-0.4-0.3-0.8-0.5-1.4-0.5c-0.4,0-0.8,0.1-1,0.3c-0.3,0.2-0.4,0.5-0.4,0.8c0,0.3,0.1,0.6,0.3,0.9
		c0.2,0.3,0.6,0.5,1.2,0.8l1.4,0.7c1.3,0.6,1.9,1.4,1.9,2.4c0,0.8-0.3,1.4-0.9,1.9s-1.2,0.7-2,0.7c-0.5,0-1.1-0.1-1.8-0.3
		c-0.2-0.1-0.4-0.1-0.5-0.1c-0.1,0-0.3,0.1-0.3,0.2h-0.3v-3h0.3c0.2,0.9,0.5,1.5,1,2c0.5,0.4,1,0.7,1.6,0.7c0.4,0,0.8-0.1,1-0.4
		s0.4-0.6,0.4-0.9c0-0.4-0.2-0.8-0.4-1.1c-0.3-0.3-0.9-0.7-1.8-1.1c-0.9-0.4-1.5-0.8-1.8-1.2c-0.3-0.4-0.4-0.8-0.4-1.3
		c0-0.7,0.2-1.3,0.7-1.8c0.5-0.5,1.1-0.7,1.9-0.7c0.3,0,0.7,0.1,1.2,0.2c0.3,0.1,0.5,0.1,0.6,0.1c0.1,0,0.2,0,0.2-0.1
		c0.1,0,0.1-0.1,0.2-0.3H38.5z M41.9-13.5c0,1.3,0.3,2.3,0.9,3c0.6,0.7,1.3,1.1,2.2,1.1c0.6,0,1-0.2,1.5-0.5c0.4-0.3,0.8-0.8,1-1.6
		l0.3,0.2c-0.1,0.8-0.5,1.6-1.1,2.3c-0.6,0.7-1.4,1-2.3,1c-1,0-1.9-0.4-2.6-1.2c-0.7-0.8-1.1-1.9-1.1-3.2c0-1.5,0.4-2.6,1.1-3.4
		c0.7-0.8,1.7-1.2,2.8-1.2c1,0,1.7,0.3,2.3,0.9c0.6,0.6,0.9,1.5,0.9,2.5H41.9z M41.9-14h3.9c0-0.5-0.1-0.9-0.2-1.2
		c-0.2-0.3-0.4-0.6-0.7-0.8c-0.3-0.2-0.6-0.3-1-0.3c-0.5,0-1,0.2-1.4,0.6C42.2-15.3,41.9-14.7,41.9-14z M54.9-9.2
		c-0.4,0.4-0.8,0.7-1.2,0.9c-0.4,0.2-0.8,0.3-1.3,0.3c-0.9,0-1.7-0.4-2.4-1.2c-0.7-0.8-1-1.8-1-3c0-1.2,0.4-2.3,1.2-3.3
		c0.8-1,1.8-1.5,3-1.5c0.7,0,1.4,0.2,1.9,0.7v-1.6c0-1,0-1.6-0.1-1.8s-0.1-0.4-0.2-0.5c-0.1-0.1-0.2-0.1-0.4-0.1
		c-0.2,0-0.4,0-0.6,0.1l-0.1-0.3l2.5-1h0.4v9.8c0,1,0,1.6,0.1,1.8c0,0.2,0.1,0.4,0.2,0.5c0.1,0.1,0.2,0.1,0.4,0.1
		c0.2,0,0.4-0.1,0.7-0.2L57.8-9l-2.5,1h-0.4V-9.2z M53.2-9c0.6,0,1.1-0.3,1.6-0.8v-4.4c0-0.4-0.1-0.8-0.3-1.2
		c-0.2-0.3-0.4-0.6-0.7-0.8s-0.6-0.3-0.9-0.3c-0.5,0-1,0.2-1.5,0.7c-0.6,0.6-0.8,1.6-0.8,2.8c0,1.2,0.3,2.2,0.8,2.9
		C52-9.3,52.6-9,53.2-9L53.2-9z M67.3-16.9c1.3,0,2.3,0.5,3.1,1.5c0.7,0.8,1,1.8,1,2.9c0,0.8-0.2,1.5-0.5,2.3
		c-0.4,0.8-0.9,1.4-1.5,1.8S68-7.9,67.2-7.9c-1.3,0-2.3-0.5-3.1-1.5c-0.6-0.9-1-1.8-1-2.9c0-0.8,0.2-1.6,0.6-2.3
		c0.4-0.8,0.9-1.3,1.5-1.7C65.9-16.8,66.6-16.9,67.3-16.9z M68.7-15.5c-0.4-0.6-1-0.9-1.7-0.9c-0.3,0-0.7,0.1-1,0.3
		c-0.3,0.2-0.6,0.5-0.8,1c-0.2,0.5-0.3,1.1-0.3,1.9c0,1.2,0.2,2.3,0.7,3.2c0.5,0.9,1.1,1.3,1.9,1.3c0.6,0,1.1-0.2,1.5-0.7
		c0.4-0.5,0.6-1.3,0.6-2.6C69.6-13.4,69.3-14.6,68.7-15.5L68.7-15.5z M75.1-15.1c1-1.2,1.9-1.8,2.8-1.8c0.5,0,0.9,0.1,1.2,0.3
		s0.6,0.6,0.8,1.1c0.1,0.4,0.2,0.9,0.2,1.7v3.6c0,0.5,0,0.9,0.1,1.1c0.1,0.2,0.2,0.3,0.3,0.4c0.2,0.1,0.4,0.1,0.8,0.1v0.3h-4.2v-0.3
		h0.2c0.4,0,0.7-0.1,0.8-0.2s0.3-0.3,0.3-0.5c0-0.1,0-0.4,0-0.9v-3.5c0-0.8-0.1-1.3-0.3-1.7c-0.2-0.3-0.5-0.5-1-0.5
		c-0.7,0-1.5,0.4-2.2,1.2v4.5c0,0.6,0,0.9,0.1,1.1c0.1,0.2,0.2,0.3,0.4,0.4c0.2,0.1,0.5,0.1,0.9,0.1v0.3h-4.2v-0.3h0.2
		c0.4,0,0.7-0.1,0.9-0.3c0.2-0.2,0.2-0.6,0.2-1.3v-3.2c0-1,0-1.6-0.1-1.9s-0.1-0.4-0.2-0.5c-0.1-0.1-0.2-0.1-0.4-0.1
		c-0.2,0-0.4,0-0.6,0.1l-0.1-0.3l2.6-1h0.4V-15.1z M89.3-16.9v1.9c0.7-1.3,1.4-1.9,2.2-1.9c0.3,0,0.6,0.1,0.8,0.3
		c0.2,0.2,0.3,0.4,0.3,0.7c0,0.2-0.1,0.4-0.2,0.6c-0.2,0.2-0.4,0.3-0.6,0.3c-0.2,0-0.5-0.1-0.7-0.3s-0.5-0.3-0.6-0.3
		c-0.1,0-0.2,0.1-0.4,0.2c-0.3,0.3-0.6,0.7-0.9,1.3v4.1c0,0.5,0.1,0.8,0.2,1.1c0.1,0.2,0.2,0.3,0.4,0.4s0.5,0.2,0.9,0.2v0.3h-4.4
		v-0.3c0.4,0,0.8-0.1,1-0.2c0.2-0.1,0.3-0.3,0.3-0.5c0-0.1,0-0.4,0-0.9v-3.3c0-1,0-1.6-0.1-1.8c0-0.2-0.1-0.3-0.2-0.4
		c-0.1-0.1-0.2-0.1-0.4-0.1c-0.2,0-0.4,0-0.6,0.1l-0.1-0.3l2.6-1H89.3z M94.6-13.5c0,1.3,0.3,2.3,0.9,3c0.6,0.7,1.3,1.1,2.2,1.1
		c0.6,0,1-0.2,1.5-0.5c0.4-0.3,0.8-0.8,1-1.6l0.3,0.2c-0.1,0.8-0.5,1.6-1.1,2.3c-0.6,0.7-1.4,1-2.3,1c-1,0-1.9-0.4-2.6-1.2
		c-0.7-0.8-1.1-1.9-1.1-3.2c0-1.5,0.4-2.6,1.1-3.4c0.7-0.8,1.7-1.2,2.8-1.2c1,0,1.7,0.3,2.3,0.9c0.6,0.6,0.9,1.5,0.9,2.5H94.6z
		 M94.6-14h3.9c0-0.5-0.1-0.9-0.2-1.2c-0.2-0.3-0.4-0.6-0.7-0.8c-0.3-0.2-0.6-0.3-1-0.3c-0.5,0-1,0.2-1.4,0.6
		C94.9-15.3,94.7-14.7,94.6-14z M107.1-16.9v2.9h-0.3c-0.2-0.9-0.5-1.5-0.9-1.9c-0.4-0.3-0.8-0.5-1.4-0.5c-0.4,0-0.8,0.1-1,0.3
		c-0.3,0.2-0.4,0.5-0.4,0.8c0,0.3,0.1,0.6,0.3,0.9c0.2,0.3,0.6,0.5,1.2,0.8l1.4,0.7c1.3,0.6,1.9,1.4,1.9,2.4c0,0.8-0.3,1.4-0.9,1.9
		s-1.2,0.7-2,0.7c-0.5,0-1.1-0.1-1.8-0.3c-0.2-0.1-0.4-0.1-0.5-0.1c-0.1,0-0.3,0.1-0.3,0.2H102v-3h0.3c0.2,0.9,0.5,1.5,1,2
		c0.5,0.4,1,0.7,1.6,0.7c0.4,0,0.8-0.1,1-0.4s0.4-0.6,0.4-0.9c0-0.4-0.2-0.8-0.4-1.1c-0.3-0.3-0.9-0.7-1.8-1.1
		c-0.9-0.4-1.5-0.8-1.8-1.2c-0.3-0.4-0.4-0.8-0.4-1.3c0-0.7,0.2-1.3,0.7-1.8c0.5-0.5,1.1-0.7,1.9-0.7c0.3,0,0.7,0.1,1.2,0.2
		c0.3,0.1,0.5,0.1,0.6,0.1c0.1,0,0.2,0,0.2-0.1c0.1,0,0.1-0.1,0.2-0.3H107.1z M110.4-13.5c0,1.3,0.3,2.3,0.9,3
		c0.6,0.7,1.3,1.1,2.2,1.1c0.6,0,1-0.2,1.5-0.5c0.4-0.3,0.8-0.8,1-1.6l0.3,0.2c-0.1,0.8-0.5,1.6-1.1,2.3c-0.6,0.7-1.4,1-2.3,1
		c-1,0-1.9-0.4-2.6-1.2c-0.7-0.8-1.1-1.9-1.1-3.2c0-1.5,0.4-2.6,1.1-3.4c0.7-0.8,1.7-1.2,2.8-1.2c1,0,1.7,0.3,2.3,0.9
		c0.6,0.6,0.9,1.5,0.9,2.5H110.4z M110.4-14h3.9c0-0.5-0.1-0.9-0.2-1.2c-0.2-0.3-0.4-0.6-0.7-0.8c-0.3-0.2-0.6-0.3-1-0.3
		c-0.5,0-1,0.2-1.4,0.6C110.7-15.3,110.5-14.7,110.4-14z M122.3-9.4c-0.9,0.7-1.4,1.1-1.6,1.2c-0.3,0.2-0.7,0.2-1.1,0.2
		c-0.6,0-1.1-0.2-1.5-0.6c-0.4-0.4-0.6-0.9-0.6-1.6c0-0.4,0.1-0.8,0.3-1.1c0.3-0.4,0.7-0.8,1.3-1.2c0.6-0.4,1.7-0.8,3.1-1.4v-0.3
		c0-0.8-0.1-1.4-0.4-1.7s-0.7-0.5-1.2-0.5c-0.4,0-0.7,0.1-0.9,0.3c-0.2,0.2-0.4,0.5-0.4,0.7l0,0.5c0,0.3-0.1,0.5-0.2,0.7
		c-0.1,0.2-0.3,0.2-0.6,0.2c-0.2,0-0.4-0.1-0.6-0.2c-0.1-0.2-0.2-0.4-0.2-0.7c0-0.5,0.3-1,0.8-1.5c0.5-0.4,1.3-0.7,2.3-0.7
		c0.8,0,1.4,0.1,1.9,0.4c0.4,0.2,0.6,0.5,0.8,0.9c0.1,0.3,0.2,0.8,0.2,1.6v2.9c0,0.8,0,1.3,0,1.5c0,0.2,0.1,0.3,0.2,0.4
		c0.1,0.1,0.2,0.1,0.2,0.1c0.1,0,0.2,0,0.3-0.1c0.1-0.1,0.4-0.3,0.8-0.7v0.5c-0.7,0.9-1.4,1.4-2,1.4c-0.3,0-0.5-0.1-0.7-0.3
		C122.4-8.6,122.3-8.9,122.3-9.4z M120.4-9.1c0.5,0,1.1-0.3,1.9-0.9v-3.2c-0.9,0.4-1.5,0.6-1.8,0.8c-0.5,0.3-0.8,0.6-1,0.9
		c-0.2,0.3-0.3,0.6-0.3,1c0,0.4,0.1,0.8,0.4,1.1C119.8-9.2,120.1-9.1,120.4-9.1L120.4-9.1z M128.4-16.9v1.9c0.7-1.3,1.4-1.9,2.2-1.9
		c0.3,0,0.6,0.1,0.8,0.3c0.2,0.2,0.3,0.4,0.3,0.7c0,0.2-0.1,0.4-0.2,0.6c-0.2,0.2-0.4,0.3-0.6,0.3c-0.2,0-0.5-0.1-0.7-0.3
		s-0.5-0.3-0.6-0.3c-0.1,0-0.2,0.1-0.4,0.2c-0.3,0.3-0.6,0.7-0.9,1.3v4.1c0,0.5,0.1,0.8,0.2,1.1c0.1,0.2,0.2,0.3,0.4,0.4
		s0.5,0.2,0.9,0.2v0.3h-4.4v-0.3c0.4,0,0.8-0.1,1-0.2c0.2-0.1,0.3-0.3,0.3-0.5c0-0.1,0-0.4,0-0.9v-3.3c0-1,0-1.6-0.1-1.8
		c0-0.2-0.1-0.3-0.2-0.4c-0.1-0.1-0.2-0.1-0.4-0.1c-0.2,0-0.4,0-0.6,0.1l-0.1-0.3l2.6-1H128.4z M139.4-11.4c-0.2,1.1-0.7,2-1.3,2.6
		s-1.4,0.9-2.2,0.9c-1,0-1.8-0.4-2.5-1.2c-0.7-0.8-1.1-1.9-1.1-3.3c0-1.3,0.4-2.4,1.2-3.3c0.8-0.8,1.7-1.3,2.9-1.3
		c0.8,0,1.5,0.2,2.1,0.7c0.5,0.4,0.8,0.9,0.8,1.4c0,0.2-0.1,0.4-0.2,0.6c-0.2,0.1-0.4,0.2-0.6,0.2c-0.4,0-0.6-0.1-0.8-0.4
		c-0.1-0.1-0.2-0.4-0.2-0.7c0-0.4-0.2-0.6-0.4-0.8c-0.2-0.2-0.5-0.3-0.9-0.3c-0.6,0-1.1,0.2-1.5,0.7c-0.5,0.6-0.8,1.4-0.8,2.4
		c0,1,0.2,1.9,0.7,2.7c0.5,0.8,1.2,1.2,2,1.2c0.6,0,1.2-0.2,1.6-0.6c0.3-0.3,0.7-0.8,1-1.5L139.4-11.4z M143.1-21.4v6.2
		c0.7-0.8,1.2-1.2,1.6-1.5c0.4-0.2,0.8-0.3,1.2-0.3c0.5,0,0.9,0.1,1.2,0.4c0.3,0.3,0.6,0.7,0.8,1.3c0.1,0.4,0.2,1.1,0.2,2.2v3
		c0,0.5,0,0.9,0.1,1.1c0.1,0.1,0.2,0.3,0.3,0.4c0.1,0.1,0.4,0.1,0.8,0.1v0.3h-4.2v-0.3h0.2c0.4,0,0.7-0.1,0.8-0.2
		c0.2-0.1,0.3-0.3,0.3-0.5c0-0.1,0-0.4,0-0.9v-3c0-0.9,0-1.5-0.1-1.8c-0.1-0.3-0.2-0.5-0.5-0.7c-0.2-0.1-0.5-0.2-0.8-0.2
		c-0.3,0-0.6,0.1-0.9,0.2c-0.3,0.2-0.7,0.5-1.2,1v4.5c0,0.6,0,0.9,0.1,1.1c0.1,0.1,0.2,0.3,0.4,0.4c0.2,0.1,0.5,0.1,0.9,0.1v0.3
		h-4.2v-0.3c0.4,0,0.7-0.1,0.9-0.2c0.1-0.1,0.2-0.2,0.3-0.4c0.1-0.2,0.1-0.5,0.1-1.1v-7.7c0-1,0-1.6-0.1-1.8s-0.1-0.4-0.2-0.5
		c-0.1-0.1-0.2-0.1-0.4-0.1c-0.1,0-0.3,0-0.6,0.1l-0.1-0.3l2.5-1H143.1z M150.6-5v-0.4c0.6-0.2,1.1-0.5,1.5-1
		c0.3-0.4,0.5-0.9,0.5-1.4c0-0.1,0-0.2-0.1-0.3c0-0.1-0.1-0.1-0.1-0.1c-0.1,0-0.2,0.1-0.4,0.2c-0.1,0.1-0.2,0.1-0.4,0.1
		c-0.3,0-0.5-0.1-0.7-0.3c-0.2-0.2-0.3-0.4-0.3-0.7c0-0.3,0.1-0.6,0.3-0.8c0.2-0.2,0.5-0.3,0.8-0.3c0.4,0,0.8,0.2,1.1,0.5
		c0.3,0.4,0.5,0.8,0.5,1.4c0,0.6-0.2,1.2-0.7,1.8C152.2-5.8,151.5-5.3,150.6-5z M166.9-11.4c-0.2,1.1-0.7,2-1.3,2.6
		s-1.4,0.9-2.2,0.9c-1,0-1.8-0.4-2.5-1.2c-0.7-0.8-1.1-1.9-1.1-3.3c0-1.3,0.4-2.4,1.2-3.3c0.8-0.8,1.7-1.3,2.9-1.3
		c0.8,0,1.5,0.2,2.1,0.7c0.5,0.4,0.8,0.9,0.8,1.4c0,0.2-0.1,0.4-0.2,0.6c-0.2,0.1-0.4,0.2-0.6,0.2c-0.4,0-0.6-0.1-0.8-0.4
		c-0.1-0.1-0.2-0.4-0.2-0.7c0-0.4-0.2-0.6-0.4-0.8c-0.2-0.2-0.5-0.3-0.9-0.3c-0.6,0-1.1,0.2-1.5,0.7c-0.5,0.6-0.8,1.4-0.8,2.4
		c0,1,0.2,1.9,0.7,2.7c0.5,0.8,1.2,1.2,2,1.2c0.6,0,1.2-0.2,1.6-0.6c0.3-0.3,0.7-0.8,1-1.5L166.9-11.4z M172.2-16.9
		c1.3,0,2.3,0.5,3.1,1.5c0.7,0.8,1,1.8,1,2.9c0,0.8-0.2,1.5-0.5,2.3c-0.4,0.8-0.9,1.4-1.5,1.8s-1.4,0.6-2.1,0.6
		c-1.3,0-2.3-0.5-3.1-1.5c-0.6-0.9-1-1.8-1-2.9c0-0.8,0.2-1.6,0.6-2.3c0.4-0.8,0.9-1.3,1.5-1.7C170.9-16.8,171.5-16.9,172.2-16.9z
		 M173.6-15.5c-0.4-0.6-1-0.9-1.7-0.9c-0.3,0-0.7,0.1-1,0.3c-0.3,0.2-0.6,0.5-0.8,1c-0.2,0.5-0.3,1.1-0.3,1.9c0,1.2,0.2,2.3,0.7,3.2
		c0.5,0.9,1.1,1.3,1.9,1.3c0.6,0,1.1-0.2,1.5-0.7c0.4-0.5,0.6-1.3,0.6-2.6C174.6-13.4,174.3-14.6,173.6-15.5L173.6-15.5z
		 M180.1-15.1c1-1.2,1.9-1.8,2.8-1.8c0.5,0,0.9,0.1,1.2,0.3s0.6,0.6,0.8,1.1c0.1,0.4,0.2,0.9,0.2,1.7v3.6c0,0.5,0,0.9,0.1,1.1
		c0.1,0.2,0.2,0.3,0.3,0.4c0.2,0.1,0.4,0.1,0.8,0.1v0.3h-4.2v-0.3h0.2c0.4,0,0.7-0.1,0.8-0.2s0.3-0.3,0.3-0.5c0-0.1,0-0.4,0-0.9
		v-3.5c0-0.8-0.1-1.3-0.3-1.7c-0.2-0.3-0.5-0.5-1-0.5c-0.7,0-1.5,0.4-2.2,1.2v4.5c0,0.6,0,0.9,0.1,1.1c0.1,0.2,0.2,0.3,0.4,0.4
		c0.2,0.1,0.5,0.1,0.9,0.1v0.3h-4.2v-0.3h0.2c0.4,0,0.7-0.1,0.9-0.3c0.2-0.2,0.2-0.6,0.2-1.3v-3.2c0-1,0-1.6-0.1-1.9
		s-0.1-0.4-0.2-0.5c-0.1-0.1-0.2-0.1-0.4-0.1c-0.2,0-0.4,0-0.6,0.1l-0.1-0.3l2.6-1h0.4V-15.1z M194.3-11.4c-0.2,1.1-0.7,2-1.3,2.6
		s-1.4,0.9-2.2,0.9c-1,0-1.8-0.4-2.5-1.2c-0.7-0.8-1.1-1.9-1.1-3.3c0-1.3,0.4-2.4,1.2-3.3c0.8-0.8,1.7-1.3,2.9-1.3
		c0.8,0,1.5,0.2,2.1,0.7c0.5,0.4,0.8,0.9,0.8,1.4c0,0.2-0.1,0.4-0.2,0.6c-0.2,0.1-0.4,0.2-0.6,0.2c-0.4,0-0.6-0.1-0.8-0.4
		c-0.1-0.1-0.2-0.4-0.2-0.7c0-0.4-0.2-0.6-0.4-0.8c-0.2-0.2-0.5-0.3-0.9-0.3c-0.6,0-1.1,0.2-1.5,0.7c-0.5,0.6-0.8,1.4-0.8,2.4
		c0,1,0.2,1.9,0.7,2.7c0.5,0.8,1.2,1.2,2,1.2c0.6,0,1.2-0.2,1.6-0.6c0.3-0.3,0.7-0.8,1-1.5L194.3-11.4z M197-13.5
		c0,1.3,0.3,2.3,0.9,3c0.6,0.7,1.3,1.1,2.2,1.1c0.6,0,1-0.2,1.5-0.5c0.4-0.3,0.8-0.8,1-1.6l0.3,0.2c-0.1,0.8-0.5,1.6-1.1,2.3
		c-0.6,0.7-1.4,1-2.3,1c-1,0-1.9-0.4-2.6-1.2c-0.7-0.8-1.1-1.9-1.1-3.2c0-1.5,0.4-2.6,1.1-3.4c0.7-0.8,1.7-1.2,2.8-1.2
		c1,0,1.7,0.3,2.3,0.9c0.6,0.6,0.9,1.5,0.9,2.5H197z M197-14h3.9c0-0.5-0.1-0.9-0.2-1.2c-0.2-0.3-0.4-0.6-0.7-0.8
		c-0.3-0.2-0.6-0.3-1-0.3c-0.5,0-1,0.2-1.4,0.6C197.3-15.3,197-14.7,197-14z M203.3-15.9l2.6-1.1h0.4v2c0.4-0.7,0.9-1.3,1.3-1.6
		c0.4-0.3,0.9-0.4,1.4-0.4c0.9,0,1.6,0.3,2.1,1c0.7,0.8,1,1.9,1,3.2c0,1.5-0.4,2.7-1.3,3.6c-0.7,0.8-1.6,1.2-2.6,1.2
		c-0.5,0-0.9-0.1-1.2-0.2c-0.2-0.1-0.5-0.3-0.8-0.6v2.6c0,0.6,0,1,0.1,1.1c0.1,0.2,0.2,0.3,0.4,0.4s0.5,0.1,1,0.1v0.3h-4.5v-0.3h0.2
		c0.3,0,0.6-0.1,0.9-0.2c0.1-0.1,0.2-0.2,0.3-0.3c0.1-0.2,0.1-0.5,0.1-1.2v-8c0-0.6,0-0.9-0.1-1c0-0.1-0.1-0.3-0.2-0.3
		c-0.1-0.1-0.3-0.1-0.4-0.1c-0.1,0-0.3,0-0.6,0.1L203.3-15.9z M207.4-15.4c-0.2,0.1-0.6,0.4-1.1,1v3.2c0,0.7,0,1.1,0.1,1.4
		c0.1,0.4,0.3,0.7,0.6,0.9c0.3,0.3,0.8,0.4,1.3,0.4c0.6,0,1.1-0.2,1.5-0.7c0.5-0.6,0.8-1.5,0.8-2.7c0-1.3-0.3-2.3-0.9-3
		c-0.4-0.5-0.9-0.7-1.4-0.7C208-15.6,207.7-15.5,207.4-15.4L207.4-15.4z M215.9-19.5v2.8h2v0.6h-2v5.5c0,0.6,0.1,0.9,0.2,1.1
		c0.2,0.2,0.4,0.3,0.6,0.3c0.2,0,0.4-0.1,0.6-0.2c0.2-0.1,0.3-0.3,0.4-0.6h0.4c-0.2,0.6-0.5,1.1-0.9,1.4c-0.4,0.3-0.8,0.5-1.2,0.5
		c-0.3,0-0.6-0.1-0.8-0.2c-0.3-0.2-0.5-0.4-0.6-0.7c-0.1-0.3-0.2-0.7-0.2-1.4V-16h-1.3v-0.3c0.3-0.1,0.7-0.4,1-0.7
		c0.4-0.3,0.7-0.7,1-1.2c0.1-0.2,0.3-0.7,0.6-1.3H215.9z M229.5-9.2c-0.4,0.4-0.8,0.7-1.2,0.9c-0.4,0.2-0.8,0.3-1.3,0.3
		c-0.9,0-1.7-0.4-2.4-1.2c-0.7-0.8-1-1.8-1-3c0-1.2,0.4-2.3,1.2-3.3c0.8-1,1.8-1.5,3-1.5c0.7,0,1.4,0.2,1.9,0.7v-1.6
		c0-1,0-1.6-0.1-1.8s-0.1-0.4-0.2-0.5c-0.1-0.1-0.2-0.1-0.4-0.1c-0.2,0-0.4,0-0.6,0.1l-0.1-0.3l2.5-1h0.4v9.8c0,1,0,1.6,0.1,1.8
		c0,0.2,0.1,0.4,0.2,0.5c0.1,0.1,0.2,0.1,0.4,0.1c0.2,0,0.4-0.1,0.7-0.2l0.1,0.3l-2.5,1h-0.4V-9.2z M227.9-9c0.6,0,1.1-0.3,1.6-0.8
		v-4.4c0-0.4-0.1-0.8-0.3-1.2c-0.2-0.3-0.4-0.6-0.7-0.8s-0.6-0.3-0.9-0.3c-0.5,0-1,0.2-1.5,0.7c-0.6,0.6-0.8,1.6-0.8,2.8
		c0,1.2,0.3,2.2,0.8,2.9C226.6-9.3,227.2-9,227.9-9L227.9-9z M234.4-13.5c0,1.3,0.3,2.3,0.9,3c0.6,0.7,1.3,1.1,2.2,1.1
		c0.6,0,1-0.2,1.5-0.5c0.4-0.3,0.8-0.8,1-1.6l0.3,0.2c-0.1,0.8-0.5,1.6-1.1,2.3c-0.6,0.7-1.4,1-2.3,1c-1,0-1.9-0.4-2.6-1.2
		c-0.7-0.8-1.1-1.9-1.1-3.2c0-1.5,0.4-2.6,1.1-3.4c0.7-0.8,1.7-1.2,2.8-1.2c1,0,1.7,0.3,2.3,0.9c0.6,0.6,0.9,1.5,0.9,2.5H234.4z
		 M234.4-14h3.9c0-0.5-0.1-0.9-0.2-1.2c-0.2-0.3-0.4-0.6-0.7-0.8c-0.3-0.2-0.6-0.3-1-0.3c-0.5,0-1,0.2-1.4,0.6
		C234.7-15.3,234.5-14.7,234.4-14z M241-16.7h4v0.3h-0.3c-0.2,0-0.4,0.1-0.6,0.2c-0.1,0.1-0.2,0.3-0.2,0.5c0,0.2,0.1,0.5,0.2,0.8
		l2,4.7l2-4.9c0.1-0.3,0.2-0.6,0.2-0.8c0-0.1,0-0.2-0.1-0.2c-0.1-0.1-0.2-0.2-0.3-0.2c-0.1,0-0.3-0.1-0.6-0.1v-0.3h2.8v0.3
		c-0.3,0-0.5,0.1-0.7,0.2c-0.2,0.2-0.4,0.5-0.6,0.9l-3,7.3h-0.4l-3-7.2c-0.1-0.3-0.3-0.6-0.4-0.7c-0.1-0.1-0.3-0.3-0.5-0.4
		c-0.1-0.1-0.3-0.1-0.6-0.2V-16.7z M252.4-13.5c0,1.3,0.3,2.3,0.9,3c0.6,0.7,1.3,1.1,2.2,1.1c0.6,0,1-0.2,1.5-0.5
		c0.4-0.3,0.8-0.8,1-1.6l0.3,0.2c-0.1,0.8-0.5,1.6-1.1,2.3c-0.6,0.7-1.4,1-2.3,1c-1,0-1.9-0.4-2.6-1.2c-0.7-0.8-1.1-1.9-1.1-3.2
		c0-1.5,0.4-2.6,1.1-3.4c0.7-0.8,1.7-1.2,2.8-1.2c1,0,1.7,0.3,2.3,0.9c0.6,0.6,0.9,1.5,0.9,2.5H252.4z M252.4-14h3.9
		c0-0.5-0.1-0.9-0.2-1.2c-0.2-0.3-0.4-0.6-0.7-0.8c-0.3-0.2-0.6-0.3-1-0.3c-0.5,0-1,0.2-1.4,0.6C252.7-15.3,252.4-14.7,252.4-14z
		 M262.3-21.4v11.3c0,0.5,0,0.9,0.1,1.1c0.1,0.2,0.2,0.3,0.4,0.4c0.2,0.1,0.5,0.1,0.9,0.1v0.3h-4.2v-0.3c0.4,0,0.7,0,0.8-0.1
		c0.1-0.1,0.3-0.2,0.3-0.4c0.1-0.2,0.1-0.5,0.1-1.1v-7.7c0-1,0-1.5-0.1-1.8c0-0.2-0.1-0.4-0.2-0.4c-0.1-0.1-0.2-0.1-0.4-0.1
		c-0.2,0-0.4,0-0.6,0.1l-0.2-0.3l2.5-1H262.3z M268.8-16.9c1.3,0,2.3,0.5,3.1,1.5c0.7,0.8,1,1.8,1,2.9c0,0.8-0.2,1.5-0.5,2.3
		c-0.4,0.8-0.9,1.4-1.5,1.8s-1.4,0.6-2.1,0.6c-1.3,0-2.3-0.5-3.1-1.5c-0.6-0.9-1-1.8-1-2.9c0-0.8,0.2-1.6,0.6-2.3
		c0.4-0.8,0.9-1.3,1.5-1.7C267.4-16.8,268.1-16.9,268.8-16.9z M270.2-15.5c-0.4-0.6-1-0.9-1.7-0.9c-0.3,0-0.7,0.1-1,0.3
		c-0.3,0.2-0.6,0.5-0.8,1c-0.2,0.5-0.3,1.1-0.3,1.9c0,1.2,0.2,2.3,0.7,3.2c0.5,0.9,1.1,1.3,1.9,1.3c0.6,0,1.1-0.2,1.5-0.7
		c0.4-0.5,0.6-1.3,0.6-2.6C271.2-13.4,270.8-14.6,270.2-15.5L270.2-15.5z M273.5-15.9l2.6-1.1h0.4v2c0.4-0.7,0.9-1.3,1.3-1.6
		c0.4-0.3,0.9-0.4,1.4-0.4c0.9,0,1.6,0.3,2.1,1c0.7,0.8,1,1.9,1,3.2c0,1.5-0.4,2.7-1.3,3.6c-0.7,0.8-1.6,1.2-2.6,1.2
		c-0.5,0-0.9-0.1-1.2-0.2c-0.2-0.1-0.5-0.3-0.8-0.6v2.6c0,0.6,0,1,0.1,1.1c0.1,0.2,0.2,0.3,0.4,0.4s0.5,0.1,1,0.1v0.3h-4.5v-0.3h0.2
		c0.3,0,0.6-0.1,0.9-0.2c0.1-0.1,0.2-0.2,0.3-0.3c0.1-0.2,0.1-0.5,0.1-1.2v-8c0-0.6,0-0.9-0.1-1c0-0.1-0.1-0.3-0.2-0.3
		c-0.1-0.1-0.3-0.1-0.4-0.1c-0.1,0-0.3,0-0.6,0.1L273.5-15.9z M277.6-15.4c-0.2,0.1-0.6,0.4-1.1,1v3.2c0,0.7,0,1.1,0.1,1.4
		c0.1,0.4,0.3,0.7,0.6,0.9c0.3,0.3,0.8,0.4,1.3,0.4c0.6,0,1.1-0.2,1.5-0.7c0.5-0.6,0.8-1.5,0.8-2.7c0-1.3-0.3-2.3-0.9-3
		c-0.4-0.5-0.9-0.7-1.4-0.7C278.2-15.6,277.9-15.5,277.6-15.4L277.6-15.4z M286.2-15.1c0.6-0.6,1-1,1.1-1.1c0.3-0.2,0.6-0.4,0.9-0.5
		c0.3-0.1,0.6-0.2,1-0.2c0.5,0,1,0.2,1.4,0.5c0.4,0.3,0.6,0.8,0.8,1.3c0.6-0.7,1.2-1.2,1.6-1.5c0.4-0.2,0.9-0.3,1.4-0.3
		c0.5,0,0.9,0.1,1.2,0.3c0.3,0.2,0.6,0.6,0.8,1.1c0.1,0.4,0.2,0.9,0.2,1.7v3.7c0,0.5,0,0.9,0.1,1.1c0.1,0.1,0.2,0.3,0.3,0.3
		c0.2,0.1,0.4,0.1,0.8,0.1v0.3h-4.2v-0.3h0.2c0.4,0,0.6-0.1,0.9-0.2c0.1-0.1,0.2-0.3,0.3-0.5c0-0.1,0-0.4,0-0.9v-3.7
		c0-0.7-0.1-1.2-0.3-1.5c-0.2-0.4-0.6-0.6-1.2-0.6c-0.3,0-0.7,0.1-1,0.2c-0.3,0.2-0.7,0.5-1.2,0.9l0,0.1l0,0.4v4.1
		c0,0.6,0,0.9,0.1,1.1c0.1,0.1,0.2,0.3,0.4,0.4c0.2,0.1,0.5,0.1,0.9,0.1v0.3h-4.3v-0.3c0.5,0,0.8-0.1,1-0.2s0.3-0.3,0.4-0.5
		c0-0.1,0-0.4,0-0.9v-3.7c0-0.7-0.1-1.2-0.3-1.5c-0.3-0.4-0.7-0.6-1.1-0.6c-0.3,0-0.7,0.1-1,0.3c-0.5,0.3-0.9,0.6-1.2,0.9v4.6
		c0,0.6,0,0.9,0.1,1.1c0.1,0.2,0.2,0.3,0.3,0.4c0.2,0.1,0.5,0.1,0.9,0.1v0.3h-4.2v-0.3c0.4,0,0.7,0,0.8-0.1c0.2-0.1,0.3-0.2,0.4-0.4
		c0.1-0.2,0.1-0.5,0.1-1.1v-3.2c0-0.9,0-1.5-0.1-1.8c0-0.2-0.1-0.3-0.2-0.4c-0.1-0.1-0.2-0.1-0.4-0.1c-0.2,0-0.4,0-0.6,0.1l-0.1-0.3
		l2.6-1h0.4V-15.1z M299.9-13.5c0,1.3,0.3,2.3,0.9,3c0.6,0.7,1.3,1.1,2.2,1.1c0.6,0,1-0.2,1.5-0.5c0.4-0.3,0.8-0.8,1-1.6l0.3,0.2
		c-0.1,0.8-0.5,1.6-1.1,2.3c-0.6,0.7-1.4,1-2.3,1c-1,0-1.9-0.4-2.6-1.2c-0.7-0.8-1.1-1.9-1.1-3.2c0-1.5,0.4-2.6,1.1-3.4
		c0.7-0.8,1.7-1.2,2.8-1.2c1,0,1.7,0.3,2.3,0.9c0.6,0.6,0.9,1.5,0.9,2.5H299.9z M299.9-14h3.9c0-0.5-0.1-0.9-0.2-1.2
		c-0.2-0.3-0.4-0.6-0.7-0.8c-0.3-0.2-0.6-0.3-1-0.3c-0.5,0-1,0.2-1.4,0.6C300.2-15.3,299.9-14.7,299.9-14z M309.3-15.1
		c1-1.2,1.9-1.8,2.8-1.8c0.5,0,0.9,0.1,1.2,0.3s0.6,0.6,0.8,1.1c0.1,0.4,0.2,0.9,0.2,1.7v3.6c0,0.5,0,0.9,0.1,1.1
		c0.1,0.2,0.2,0.3,0.3,0.4c0.2,0.1,0.4,0.1,0.8,0.1v0.3h-4.2v-0.3h0.2c0.4,0,0.7-0.1,0.8-0.2s0.3-0.3,0.3-0.5c0-0.1,0-0.4,0-0.9
		v-3.5c0-0.8-0.1-1.3-0.3-1.7c-0.2-0.3-0.5-0.5-1-0.5c-0.7,0-1.5,0.4-2.2,1.2v4.5c0,0.6,0,0.9,0.1,1.1c0.1,0.2,0.2,0.3,0.4,0.4
		c0.2,0.1,0.5,0.1,0.9,0.1v0.3h-4.2v-0.3h0.2c0.4,0,0.7-0.1,0.9-0.3c0.2-0.2,0.2-0.6,0.2-1.3v-3.2c0-1,0-1.6-0.1-1.9
		s-0.1-0.4-0.2-0.5c-0.1-0.1-0.2-0.1-0.4-0.1c-0.2,0-0.4,0-0.6,0.1l-0.1-0.3l2.6-1h0.4V-15.1z M318.8-19.5v2.8h2v0.6h-2v5.5
		c0,0.6,0.1,0.9,0.2,1.1c0.2,0.2,0.4,0.3,0.6,0.3c0.2,0,0.4-0.1,0.6-0.2c0.2-0.1,0.3-0.3,0.4-0.6h0.4c-0.2,0.6-0.5,1.1-0.9,1.4
		c-0.4,0.3-0.8,0.5-1.2,0.5c-0.3,0-0.6-0.1-0.8-0.2c-0.3-0.2-0.5-0.4-0.6-0.7c-0.1-0.3-0.2-0.7-0.2-1.4V-16H316v-0.3
		c0.3-0.1,0.7-0.4,1-0.7c0.4-0.3,0.7-0.7,1-1.2c0.1-0.2,0.3-0.7,0.6-1.3H318.8z M322.1-5v-0.4c0.6-0.2,1.1-0.5,1.5-1
		c0.3-0.4,0.5-0.9,0.5-1.4c0-0.1,0-0.2-0.1-0.3c0-0.1-0.1-0.1-0.1-0.1c-0.1,0-0.2,0.1-0.4,0.2c-0.1,0.1-0.2,0.1-0.4,0.1
		c-0.3,0-0.5-0.1-0.7-0.3c-0.2-0.2-0.3-0.4-0.3-0.7c0-0.3,0.1-0.6,0.3-0.8c0.2-0.2,0.5-0.3,0.8-0.3c0.4,0,0.8,0.2,1.1,0.5
		c0.3,0.4,0.5,0.8,0.5,1.4c0,0.6-0.2,1.2-0.7,1.8C323.7-5.8,323-5.3,322.1-5z M336-9.4c-0.9,0.7-1.4,1.1-1.6,1.2
		C334-8.1,333.6-8,333.3-8c-0.6,0-1.1-0.2-1.5-0.6c-0.4-0.4-0.6-0.9-0.6-1.6c0-0.4,0.1-0.8,0.3-1.1c0.3-0.4,0.7-0.8,1.3-1.2
		c0.6-0.4,1.7-0.8,3.1-1.4v-0.3c0-0.8-0.1-1.4-0.4-1.7s-0.7-0.5-1.2-0.5c-0.4,0-0.7,0.1-0.9,0.3c-0.2,0.2-0.4,0.5-0.4,0.7l0,0.5
		c0,0.3-0.1,0.5-0.2,0.7c-0.1,0.2-0.3,0.2-0.6,0.2c-0.2,0-0.4-0.1-0.6-0.2c-0.1-0.2-0.2-0.4-0.2-0.7c0-0.5,0.3-1,0.8-1.5
		c0.5-0.4,1.3-0.7,2.3-0.7c0.8,0,1.4,0.1,1.9,0.4c0.4,0.2,0.6,0.5,0.8,0.9c0.1,0.3,0.2,0.8,0.2,1.6v2.9c0,0.8,0,1.3,0,1.5
		c0,0.2,0.1,0.3,0.2,0.4c0.1,0.1,0.2,0.1,0.2,0.1c0.1,0,0.2,0,0.3-0.1c0.1-0.1,0.4-0.3,0.8-0.7v0.5c-0.7,0.9-1.4,1.4-2,1.4
		c-0.3,0-0.5-0.1-0.7-0.3C336.1-8.6,336-8.9,336-9.4z M334.1-9.1c0.5,0,1.1-0.3,1.9-0.9v-3.2c-0.9,0.4-1.5,0.6-1.8,0.8
		c-0.5,0.3-0.8,0.6-1,0.9c-0.2,0.3-0.3,0.6-0.3,1c0,0.4,0.1,0.8,0.4,1.1C333.5-9.2,333.8-9.1,334.1-9.1L334.1-9.1z M342.1-15.1
		c1-1.2,1.9-1.8,2.8-1.8c0.5,0,0.9,0.1,1.2,0.3s0.6,0.6,0.8,1.1c0.1,0.4,0.2,0.9,0.2,1.7v3.6c0,0.5,0,0.9,0.1,1.1
		c0.1,0.2,0.2,0.3,0.3,0.4c0.2,0.1,0.4,0.1,0.8,0.1v0.3h-4.2v-0.3h0.2c0.4,0,0.7-0.1,0.8-0.2s0.3-0.3,0.3-0.5c0-0.1,0-0.4,0-0.9
		v-3.5c0-0.8-0.1-1.3-0.3-1.7c-0.2-0.3-0.5-0.5-1-0.5c-0.7,0-1.5,0.4-2.2,1.2v4.5c0,0.6,0,0.9,0.1,1.1c0.1,0.2,0.2,0.3,0.4,0.4
		c0.2,0.1,0.5,0.1,0.9,0.1v0.3h-4.2v-0.3h0.2c0.4,0,0.7-0.1,0.9-0.3c0.2-0.2,0.2-0.6,0.2-1.3v-3.2c0-1,0-1.6-0.1-1.9
		s-0.1-0.4-0.2-0.5c-0.1-0.1-0.2-0.1-0.4-0.1c-0.2,0-0.4,0-0.6,0.1l-0.1-0.3l2.6-1h0.4V-15.1z M355.1-9.2c-0.4,0.4-0.8,0.7-1.2,0.9
		c-0.4,0.2-0.8,0.3-1.3,0.3c-0.9,0-1.7-0.4-2.4-1.2c-0.7-0.8-1-1.8-1-3c0-1.2,0.4-2.3,1.2-3.3c0.8-1,1.8-1.5,3-1.5
		c0.7,0,1.4,0.2,1.9,0.7v-1.6c0-1,0-1.6-0.1-1.8s-0.1-0.4-0.2-0.5c-0.1-0.1-0.2-0.1-0.4-0.1c-0.2,0-0.4,0-0.6,0.1l-0.1-0.3l2.5-1
		h0.4v9.8c0,1,0,1.6,0.1,1.8c0,0.2,0.1,0.4,0.2,0.5c0.1,0.1,0.2,0.1,0.4,0.1c0.2,0,0.4-0.1,0.7-0.2L358-9l-2.5,1h-0.4V-9.2z
		 M353.5-9c0.6,0,1.1-0.3,1.6-0.8v-4.4c0-0.4-0.1-0.8-0.3-1.2c-0.2-0.3-0.4-0.6-0.7-0.8s-0.6-0.3-0.9-0.3c-0.5,0-1,0.2-1.5,0.7
		c-0.6,0.6-0.8,1.6-0.8,2.8c0,1.2,0.3,2.2,0.8,2.9C352.2-9.3,352.8-9,353.5-9L353.5-9z M366.3-16.9v6.8c0,0.5,0,0.9,0.1,1.1
		c0.1,0.2,0.2,0.3,0.3,0.4c0.2,0.1,0.4,0.1,0.8,0.1v0.3h-4.1v-0.3c0.4,0,0.7,0,0.8-0.1c0.1-0.1,0.3-0.2,0.3-0.4s0.1-0.5,0.1-1.1
		v-3.3c0-0.9,0-1.5-0.1-1.8c0-0.2-0.1-0.3-0.2-0.4c-0.1-0.1-0.2-0.1-0.4-0.1c-0.2,0-0.4,0-0.6,0.1l-0.1-0.3l2.6-1H366.3z
		 M365.5-21.4c0.3,0,0.5,0.1,0.7,0.3c0.2,0.2,0.3,0.4,0.3,0.7s-0.1,0.5-0.3,0.7c-0.2,0.2-0.4,0.3-0.7,0.3s-0.5-0.1-0.7-0.3
		s-0.3-0.4-0.3-0.7s0.1-0.5,0.3-0.7C365-21.3,365.2-21.4,365.5-21.4z M371.1-19.5v2.8h2v0.6h-2v5.5c0,0.6,0.1,0.9,0.2,1.1
		c0.2,0.2,0.4,0.3,0.6,0.3c0.2,0,0.4-0.1,0.6-0.2c0.2-0.1,0.3-0.3,0.4-0.6h0.4c-0.2,0.6-0.5,1.1-0.9,1.4c-0.4,0.3-0.8,0.5-1.2,0.5
		c-0.3,0-0.6-0.1-0.8-0.2c-0.3-0.2-0.5-0.4-0.6-0.7c-0.1-0.3-0.2-0.7-0.2-1.4V-16h-1.3v-0.3c0.3-0.1,0.7-0.4,1-0.7
		c0.4-0.3,0.7-0.7,1-1.2c0.1-0.2,0.3-0.7,0.6-1.3H371.1z M375.3-13.5c0,1.3,0.3,2.3,0.9,3c0.6,0.7,1.3,1.1,2.2,1.1
		c0.6,0,1-0.2,1.5-0.5c0.4-0.3,0.8-0.8,1-1.6l0.3,0.2c-0.1,0.8-0.5,1.6-1.1,2.3c-0.6,0.7-1.4,1-2.3,1c-1,0-1.9-0.4-2.6-1.2
		c-0.7-0.8-1.1-1.9-1.1-3.2c0-1.5,0.4-2.6,1.1-3.4c0.7-0.8,1.7-1.2,2.8-1.2c1,0,1.7,0.3,2.3,0.9c0.6,0.6,0.9,1.5,0.9,2.5H375.3z
		 M375.3-14h3.9c0-0.5-0.1-0.9-0.2-1.2c-0.2-0.3-0.4-0.6-0.7-0.8c-0.3-0.2-0.6-0.3-1-0.3c-0.5,0-1,0.2-1.4,0.6
		C375.6-15.3,375.4-14.7,375.3-14z M384.8-16.9v1.9c0.7-1.3,1.4-1.9,2.2-1.9c0.3,0,0.6,0.1,0.8,0.3c0.2,0.2,0.3,0.4,0.3,0.7
		c0,0.2-0.1,0.4-0.2,0.6c-0.2,0.2-0.4,0.3-0.6,0.3c-0.2,0-0.5-0.1-0.7-0.3s-0.5-0.3-0.6-0.3c-0.1,0-0.2,0.1-0.4,0.2
		c-0.3,0.3-0.6,0.7-0.9,1.3v4.1c0,0.5,0.1,0.8,0.2,1.1c0.1,0.2,0.2,0.3,0.4,0.4s0.5,0.2,0.9,0.2v0.3H382v-0.3c0.4,0,0.8-0.1,1-0.2
		c0.2-0.1,0.3-0.3,0.3-0.5c0-0.1,0-0.4,0-0.9v-3.3c0-1,0-1.6-0.1-1.8c0-0.2-0.1-0.3-0.2-0.4c-0.1-0.1-0.2-0.1-0.4-0.1
		c-0.2,0-0.4,0-0.6,0.1l-0.1-0.3l2.6-1H384.8z M393.5-9.4c-0.9,0.7-1.4,1.1-1.6,1.2c-0.3,0.2-0.7,0.2-1.1,0.2
		c-0.6,0-1.1-0.2-1.5-0.6c-0.4-0.4-0.6-0.9-0.6-1.6c0-0.4,0.1-0.8,0.3-1.1c0.3-0.4,0.7-0.8,1.3-1.2c0.6-0.4,1.7-0.8,3.1-1.4v-0.3
		c0-0.8-0.1-1.4-0.4-1.7s-0.7-0.5-1.2-0.5c-0.4,0-0.7,0.1-0.9,0.3c-0.2,0.2-0.4,0.5-0.4,0.7l0,0.5c0,0.3-0.1,0.5-0.2,0.7
		c-0.1,0.2-0.3,0.2-0.6,0.2c-0.2,0-0.4-0.1-0.6-0.2c-0.1-0.2-0.2-0.4-0.2-0.7c0-0.5,0.3-1,0.8-1.5c0.5-0.4,1.3-0.7,2.3-0.7
		c0.8,0,1.4,0.1,1.9,0.4c0.4,0.2,0.6,0.5,0.8,0.9c0.1,0.3,0.2,0.8,0.2,1.6v2.9c0,0.8,0,1.3,0,1.5c0,0.2,0.1,0.3,0.2,0.4
		c0.1,0.1,0.2,0.1,0.2,0.1c0.1,0,0.2,0,0.3-0.1c0.1-0.1,0.4-0.3,0.8-0.7v0.5c-0.7,0.9-1.4,1.4-2,1.4c-0.3,0-0.5-0.1-0.7-0.3
		C393.6-8.6,393.5-8.9,393.5-9.4z M391.6-9.1c0.5,0,1.1-0.3,1.9-0.9v-3.2c-0.9,0.4-1.5,0.6-1.8,0.8c-0.5,0.3-0.8,0.6-1,0.9
		c-0.2,0.3-0.3,0.6-0.3,1c0,0.4,0.1,0.8,0.4,1.1C391-9.2,391.3-9.1,391.6-9.1L391.6-9.1z M399.6-19.5v2.8h2v0.6h-2v5.5
		c0,0.6,0.1,0.9,0.2,1.1c0.2,0.2,0.4,0.3,0.6,0.3c0.2,0,0.4-0.1,0.6-0.2c0.2-0.1,0.3-0.3,0.4-0.6h0.4c-0.2,0.6-0.5,1.1-0.9,1.4
		c-0.4,0.3-0.8,0.5-1.2,0.5c-0.3,0-0.6-0.1-0.8-0.2c-0.3-0.2-0.5-0.4-0.6-0.7c-0.1-0.3-0.2-0.7-0.2-1.4V-16h-1.3v-0.3
		c0.3-0.1,0.7-0.4,1-0.7c0.4-0.3,0.7-0.7,1-1.2c0.1-0.2,0.3-0.7,0.6-1.3H399.6z M405.3-16.9v6.8c0,0.5,0,0.9,0.1,1.1
		c0.1,0.2,0.2,0.3,0.3,0.4c0.2,0.1,0.4,0.1,0.8,0.1v0.3h-4.1v-0.3c0.4,0,0.7,0,0.8-0.1c0.1-0.1,0.3-0.2,0.3-0.4s0.1-0.5,0.1-1.1
		v-3.3c0-0.9,0-1.5-0.1-1.8c0-0.2-0.1-0.3-0.2-0.4c-0.1-0.1-0.2-0.1-0.4-0.1c-0.2,0-0.4,0-0.6,0.1l-0.1-0.3l2.6-1H405.3z
		 M404.5-21.4c0.3,0,0.5,0.1,0.7,0.3c0.2,0.2,0.3,0.4,0.3,0.7s-0.1,0.5-0.3,0.7c-0.2,0.2-0.4,0.3-0.7,0.3s-0.5-0.1-0.7-0.3
		s-0.3-0.4-0.3-0.7s0.1-0.5,0.3-0.7C404-21.3,404.3-21.4,404.5-21.4z M407.2-16.7h4v0.3H411c-0.2,0-0.4,0.1-0.6,0.2
		c-0.1,0.1-0.2,0.3-0.2,0.5c0,0.2,0.1,0.5,0.2,0.8l2,4.7l2-4.9c0.1-0.3,0.2-0.6,0.2-0.8c0-0.1,0-0.2-0.1-0.2
		c-0.1-0.1-0.2-0.2-0.3-0.2c-0.1,0-0.3-0.1-0.6-0.1v-0.3h2.8v0.3c-0.3,0-0.5,0.1-0.7,0.2c-0.2,0.2-0.4,0.5-0.6,0.9l-3,7.3h-0.4
		l-3-7.2c-0.1-0.3-0.3-0.6-0.4-0.7c-0.1-0.1-0.3-0.3-0.5-0.4c-0.1-0.1-0.3-0.1-0.6-0.2V-16.7z M418.6-13.5c0,1.3,0.3,2.3,0.9,3
		c0.6,0.7,1.3,1.1,2.2,1.1c0.6,0,1-0.2,1.5-0.5c0.4-0.3,0.8-0.8,1-1.6l0.3,0.2c-0.1,0.8-0.5,1.6-1.1,2.3c-0.6,0.7-1.4,1-2.3,1
		c-1,0-1.9-0.4-2.6-1.2c-0.7-0.8-1.1-1.9-1.1-3.2c0-1.5,0.4-2.6,1.1-3.4c0.7-0.8,1.7-1.2,2.8-1.2c1,0,1.7,0.3,2.3,0.9
		c0.6,0.6,0.9,1.5,0.9,2.5H418.6z M418.6-14h3.9c0-0.5-0.1-0.9-0.2-1.2c-0.2-0.3-0.4-0.6-0.7-0.8c-0.3-0.2-0.6-0.3-1-0.3
		c-0.5,0-1,0.2-1.4,0.6C418.9-15.3,418.7-14.7,418.6-14z M430.3-21.4l-4.6,13.5H425l4.6-13.5H430.3z M437.5-16h-3.8v5.5
		c0,0.7,0,1.1,0.1,1.3c0.1,0.2,0.2,0.4,0.5,0.5c0.2,0.1,0.5,0.2,1,0.2v0.3h-4.7v-0.3h0.4c0.4,0,0.6-0.1,0.9-0.3
		c0.2-0.2,0.3-0.7,0.3-1.6V-16h-1.6v-0.7h1.6c0-1.2,0.2-2.2,0.5-2.8c0.3-0.6,0.7-1.1,1.2-1.4s1.1-0.5,1.7-0.5c0.6,0,1.2,0.2,1.9,0.7
		l1.3-0.7h0.4v11.2c0,0.6,0,0.9,0.1,1.1c0.1,0.2,0.2,0.3,0.4,0.4s0.5,0.1,0.9,0.1v0.3h-4.2v-0.3c0.4,0,0.7-0.1,0.9-0.2
		c0.1-0.1,0.2-0.2,0.3-0.3s0.1-0.5,0.1-1.1V-16z M437.5-16.7v-2.8c-0.2,0.2-0.4,0.3-0.6,0.3c-0.3,0-0.6-0.3-1-0.8
		c-0.4-0.5-0.7-0.8-1.1-0.8c-0.2,0-0.4,0.1-0.5,0.2c-0.2,0.2-0.4,0.5-0.5,0.8c-0.1,0.3-0.1,1-0.1,2.2v0.8H437.5z M448.9-16.7v5.1
		c0,1,0,1.6,0.1,1.8c0,0.2,0.1,0.4,0.2,0.5c0.1,0.1,0.2,0.1,0.4,0.1c0.2,0,0.4-0.1,0.6-0.2l0.1,0.3l-2.5,1h-0.4v-1.8
		c-0.7,0.8-1.3,1.3-1.7,1.5c-0.4,0.2-0.8,0.3-1.2,0.3c-0.5,0-0.9-0.1-1.2-0.4c-0.3-0.3-0.6-0.6-0.7-1.1c-0.1-0.4-0.2-1-0.2-1.8V-15
		c0-0.4,0-0.7-0.1-0.8c-0.1-0.2-0.2-0.3-0.4-0.4c-0.2-0.1-0.5-0.1-0.9-0.1v-0.3h3v5.7c0,0.8,0.1,1.3,0.4,1.6c0.3,0.2,0.6,0.4,1,0.4
		c0.3,0,0.6-0.1,0.9-0.3c0.3-0.2,0.7-0.5,1.2-1v-4.8c0-0.5-0.1-0.8-0.3-1c-0.2-0.2-0.5-0.3-1.1-0.3v-0.3H448.9z M453.9-16.9v6.8
		c0,0.5,0,0.9,0.1,1.1c0.1,0.2,0.2,0.3,0.3,0.4c0.2,0.1,0.4,0.1,0.8,0.1v0.3H451v-0.3c0.4,0,0.7,0,0.8-0.1c0.1-0.1,0.3-0.2,0.3-0.4
		s0.1-0.5,0.1-1.1v-3.3c0-0.9,0-1.5-0.1-1.8c0-0.2-0.1-0.3-0.2-0.4c-0.1-0.1-0.2-0.1-0.4-0.1c-0.2,0-0.4,0-0.6,0.1l-0.1-0.3l2.6-1
		H453.9z M453.1-21.4c0.3,0,0.5,0.1,0.7,0.3c0.2,0.2,0.3,0.4,0.3,0.7s-0.1,0.5-0.3,0.7c-0.2,0.2-0.4,0.3-0.7,0.3s-0.5-0.1-0.7-0.3
		s-0.3-0.4-0.3-0.7s0.1-0.5,0.3-0.7C452.6-21.3,452.8-21.4,453.1-21.4z M462.2-9.2c-0.4,0.4-0.8,0.7-1.2,0.9
		c-0.4,0.2-0.8,0.3-1.3,0.3c-0.9,0-1.7-0.4-2.4-1.2c-0.7-0.8-1-1.8-1-3c0-1.2,0.4-2.3,1.2-3.3c0.8-1,1.8-1.5,3-1.5
		c0.7,0,1.4,0.2,1.9,0.7v-1.6c0-1,0-1.6-0.1-1.8s-0.1-0.4-0.2-0.5c-0.1-0.1-0.2-0.1-0.4-0.1c-0.2,0-0.4,0-0.6,0.1l-0.1-0.3l2.5-1
		h0.4v9.8c0,1,0,1.6,0.1,1.8c0,0.2,0.1,0.4,0.2,0.5c0.1,0.1,0.2,0.1,0.4,0.1c0.2,0,0.4-0.1,0.7-0.2l0.1,0.3l-2.5,1h-0.4V-9.2z
		 M460.6-9c0.6,0,1.1-0.3,1.6-0.8v-4.4c0-0.4-0.1-0.8-0.3-1.2c-0.2-0.3-0.4-0.6-0.7-0.8s-0.6-0.3-0.9-0.3c-0.5,0-1,0.2-1.5,0.7
		c-0.6,0.6-0.8,1.6-0.8,2.8c0,1.2,0.3,2.2,0.8,2.9C459.3-9.3,459.9-9,460.6-9L460.6-9z M477.7-11.4c-0.2,1.1-0.7,2-1.3,2.6
		s-1.4,0.9-2.2,0.9c-1,0-1.8-0.4-2.5-1.2c-0.7-0.8-1.1-1.9-1.1-3.3c0-1.3,0.4-2.4,1.2-3.3c0.8-0.8,1.7-1.3,2.9-1.3
		c0.8,0,1.5,0.2,2.1,0.7c0.5,0.4,0.8,0.9,0.8,1.4c0,0.2-0.1,0.4-0.2,0.6c-0.2,0.1-0.4,0.2-0.6,0.2c-0.4,0-0.6-0.1-0.8-0.4
		c-0.1-0.1-0.2-0.4-0.2-0.7c0-0.4-0.2-0.6-0.4-0.8c-0.2-0.2-0.5-0.3-0.9-0.3c-0.6,0-1.1,0.2-1.5,0.7c-0.5,0.6-0.8,1.4-0.8,2.4
		c0,1,0.2,1.9,0.7,2.7c0.5,0.8,1.2,1.2,2,1.2c0.6,0,1.2-0.2,1.6-0.6c0.3-0.3,0.7-0.8,1-1.5L477.7-11.4z M483.1-16.9
		c1.3,0,2.3,0.5,3.1,1.5c0.7,0.8,1,1.8,1,2.9c0,0.8-0.2,1.5-0.5,2.3c-0.4,0.8-0.9,1.4-1.5,1.8s-1.4,0.6-2.1,0.6
		c-1.3,0-2.3-0.5-3.1-1.5c-0.6-0.9-1-1.8-1-2.9c0-0.8,0.2-1.6,0.6-2.3c0.4-0.8,0.9-1.3,1.5-1.7C481.7-16.8,482.4-16.9,483.1-16.9z
		 M484.5-15.5c-0.4-0.6-1-0.9-1.7-0.9c-0.3,0-0.7,0.1-1,0.3c-0.3,0.2-0.6,0.5-0.8,1c-0.2,0.5-0.3,1.1-0.3,1.9c0,1.2,0.2,2.3,0.7,3.2
		c0.5,0.9,1.1,1.3,1.9,1.3c0.6,0,1.1-0.2,1.5-0.7c0.4-0.5,0.6-1.3,0.6-2.6C485.4-13.4,485.1-14.6,484.5-15.5L484.5-15.5z
		 M491.3-21.4v11.3c0,0.5,0,0.9,0.1,1.1c0.1,0.2,0.2,0.3,0.4,0.4c0.2,0.1,0.5,0.1,0.9,0.1v0.3h-4.2v-0.3c0.4,0,0.7,0,0.8-0.1
		c0.1-0.1,0.3-0.2,0.3-0.4c0.1-0.2,0.1-0.5,0.1-1.1v-7.7c0-1,0-1.5-0.1-1.8c0-0.2-0.1-0.4-0.2-0.4c-0.1-0.1-0.2-0.1-0.4-0.1
		c-0.2,0-0.4,0-0.6,0.1l-0.2-0.3l2.5-1H491.3z M496.6-21.4v11.3c0,0.5,0,0.9,0.1,1.1c0.1,0.2,0.2,0.3,0.4,0.4
		c0.2,0.1,0.5,0.1,0.9,0.1v0.3h-4.2v-0.3c0.4,0,0.7,0,0.8-0.1c0.1-0.1,0.3-0.2,0.3-0.4c0.1-0.2,0.1-0.5,0.1-1.1v-7.7
		c0-1,0-1.5-0.1-1.8c0-0.2-0.1-0.4-0.2-0.4c-0.1-0.1-0.2-0.1-0.4-0.1c-0.2,0-0.4,0-0.6,0.1l-0.2-0.3l2.5-1H496.6z M503.8-9.4
		c-0.9,0.7-1.4,1.1-1.6,1.2c-0.3,0.2-0.7,0.2-1.1,0.2c-0.6,0-1.1-0.2-1.5-0.6c-0.4-0.4-0.6-0.9-0.6-1.6c0-0.4,0.1-0.8,0.3-1.1
		c0.3-0.4,0.7-0.8,1.3-1.2c0.6-0.4,1.7-0.8,3.1-1.4v-0.3c0-0.8-0.1-1.4-0.4-1.7s-0.7-0.5-1.2-0.5c-0.4,0-0.7,0.1-0.9,0.3
		c-0.2,0.2-0.4,0.5-0.4,0.7l0,0.5c0,0.3-0.1,0.5-0.2,0.7c-0.1,0.2-0.3,0.2-0.6,0.2c-0.2,0-0.4-0.1-0.6-0.2c-0.1-0.2-0.2-0.4-0.2-0.7
		c0-0.5,0.3-1,0.8-1.5c0.5-0.4,1.3-0.7,2.3-0.7c0.8,0,1.4,0.1,1.9,0.4c0.4,0.2,0.6,0.5,0.8,0.9c0.1,0.3,0.2,0.8,0.2,1.6v2.9
		c0,0.8,0,1.3,0,1.5c0,0.2,0.1,0.3,0.2,0.4c0.1,0.1,0.2,0.1,0.2,0.1c0.1,0,0.2,0,0.3-0.1c0.1-0.1,0.4-0.3,0.8-0.7v0.5
		c-0.7,0.9-1.4,1.4-2,1.4c-0.3,0-0.5-0.1-0.7-0.3C503.9-8.6,503.8-8.9,503.8-9.4z M501.9-9.1c0.5,0,1.1-0.3,1.9-0.9v-3.2
		c-0.9,0.4-1.5,0.6-1.8,0.8c-0.5,0.3-0.8,0.6-1,0.9c-0.2,0.3-0.3,0.6-0.3,1c0,0.4,0.1,0.8,0.4,1.1C501.3-9.2,501.6-9.1,501.9-9.1
		L501.9-9.1z M509.7-15.2c0.8-1.1,1.7-1.7,2.7-1.7c0.9,0,1.6,0.4,2.3,1.1c0.6,0.7,1,1.8,1,3.1c0,1.5-0.5,2.7-1.5,3.6
		c-0.9,0.8-1.8,1.2-2.9,1.2c-0.5,0-1-0.1-1.5-0.3s-1-0.4-1.6-0.8v-8.8c0-1,0-1.6-0.1-1.8s-0.1-0.4-0.2-0.5c-0.1-0.1-0.2-0.1-0.4-0.1
		c-0.2,0-0.4,0-0.6,0.1l-0.1-0.3l2.6-1h0.4V-15.2z M510.7-15.4c-0.2,0.1-0.6,0.4-0.9,0.7v5.1c0.3,0.3,0.6,0.5,1,0.7
		c0.3,0.2,0.7,0.2,1,0.2c0.6,0,1.1-0.3,1.6-0.9c0.5-0.6,0.7-1.5,0.7-2.7c0-1.1-0.2-1.9-0.7-2.5c-0.5-0.6-1-0.9-1.7-0.9
		C511.3-15.6,511-15.5,510.7-15.4L510.7-15.4z M521.1-16.9c1.3,0,2.3,0.5,3.1,1.5c0.7,0.8,1,1.8,1,2.9c0,0.8-0.2,1.5-0.5,2.3
		c-0.4,0.8-0.9,1.4-1.5,1.8s-1.4,0.6-2.1,0.6c-1.3,0-2.3-0.5-3.1-1.5c-0.6-0.9-1-1.8-1-2.9c0-0.8,0.2-1.6,0.6-2.3
		c0.4-0.8,0.9-1.3,1.5-1.7C519.7-16.8,520.4-16.9,521.1-16.9z M522.5-15.5c-0.4-0.6-1-0.9-1.7-0.9c-0.3,0-0.7,0.1-1,0.3
		c-0.3,0.2-0.6,0.5-0.8,1c-0.2,0.5-0.3,1.1-0.3,1.9c0,1.2,0.2,2.3,0.7,3.2c0.5,0.9,1.1,1.3,1.9,1.3c0.6,0,1.1-0.2,1.5-0.7
		c0.4-0.5,0.6-1.3,0.6-2.6C523.4-13.4,523.1-14.6,522.5-15.5L522.5-15.5z M528.9-16.9v1.9c0.7-1.3,1.4-1.9,2.2-1.9
		c0.3,0,0.6,0.1,0.8,0.3c0.2,0.2,0.3,0.4,0.3,0.7c0,0.2-0.1,0.4-0.2,0.6c-0.2,0.2-0.4,0.3-0.6,0.3c-0.2,0-0.5-0.1-0.7-0.3
		s-0.5-0.3-0.6-0.3c-0.1,0-0.2,0.1-0.4,0.2c-0.3,0.3-0.6,0.7-0.9,1.3v4.1c0,0.5,0.1,0.8,0.2,1.1c0.1,0.2,0.2,0.3,0.4,0.4
		s0.5,0.2,0.9,0.2v0.3H526v-0.3c0.4,0,0.8-0.1,1-0.2c0.2-0.1,0.3-0.3,0.3-0.5c0-0.1,0-0.4,0-0.9v-3.3c0-1,0-1.6-0.1-1.8
		c0-0.2-0.1-0.3-0.2-0.4c-0.1-0.1-0.2-0.1-0.4-0.1c-0.2,0-0.4,0-0.6,0.1l-0.1-0.3l2.6-1H528.9z M537.5-9.4c-0.9,0.7-1.4,1.1-1.6,1.2
		c-0.3,0.2-0.7,0.2-1.1,0.2c-0.6,0-1.1-0.2-1.5-0.6c-0.4-0.4-0.6-0.9-0.6-1.6c0-0.4,0.1-0.8,0.3-1.1c0.3-0.4,0.7-0.8,1.3-1.2
		c0.6-0.4,1.7-0.8,3.1-1.4v-0.3c0-0.8-0.1-1.4-0.4-1.7s-0.7-0.5-1.2-0.5c-0.4,0-0.7,0.1-0.9,0.3c-0.2,0.2-0.4,0.5-0.4,0.7l0,0.5
		c0,0.3-0.1,0.5-0.2,0.7c-0.1,0.2-0.3,0.2-0.6,0.2c-0.2,0-0.4-0.1-0.6-0.2c-0.1-0.2-0.2-0.4-0.2-0.7c0-0.5,0.3-1,0.8-1.5
		c0.5-0.4,1.3-0.7,2.3-0.7c0.8,0,1.4,0.1,1.9,0.4c0.4,0.2,0.6,0.5,0.8,0.9c0.1,0.3,0.2,0.8,0.2,1.6v2.9c0,0.8,0,1.3,0,1.5
		c0,0.2,0.1,0.3,0.2,0.4c0.1,0.1,0.2,0.1,0.2,0.1c0.1,0,0.2,0,0.3-0.1c0.1-0.1,0.4-0.3,0.8-0.7v0.5c-0.7,0.9-1.4,1.4-2,1.4
		c-0.3,0-0.5-0.1-0.7-0.3C537.6-8.6,537.6-8.9,537.5-9.4z M535.7-9.1c0.5,0,1.1-0.3,1.9-0.9v-3.2c-0.9,0.4-1.5,0.6-1.8,0.8
		c-0.5,0.3-0.8,0.6-1,0.9c-0.2,0.3-0.3,0.6-0.3,1c0,0.4,0.1,0.8,0.4,1.1C535-9.2,535.3-9.1,535.7-9.1L535.7-9.1z M543.6-19.5v2.8h2
		v0.6h-2v5.5c0,0.6,0.1,0.9,0.2,1.1c0.2,0.2,0.4,0.3,0.6,0.3c0.2,0,0.4-0.1,0.6-0.2c0.2-0.1,0.3-0.3,0.4-0.6h0.4
		c-0.2,0.6-0.5,1.1-0.9,1.4c-0.4,0.3-0.8,0.5-1.2,0.5c-0.3,0-0.6-0.1-0.8-0.2c-0.3-0.2-0.5-0.4-0.6-0.7c-0.1-0.3-0.2-0.7-0.2-1.4
		V-16h-1.3v-0.3c0.3-0.1,0.7-0.4,1-0.7c0.4-0.3,0.7-0.7,1-1.2c0.1-0.2,0.3-0.7,0.6-1.3H543.6z M549.4-16.9v6.8c0,0.5,0,0.9,0.1,1.1
		c0.1,0.2,0.2,0.3,0.3,0.4c0.2,0.1,0.4,0.1,0.8,0.1v0.3h-4.1v-0.3c0.4,0,0.7,0,0.8-0.1c0.1-0.1,0.3-0.2,0.3-0.4s0.1-0.5,0.1-1.1
		v-3.3c0-0.9,0-1.5-0.1-1.8c0-0.2-0.1-0.3-0.2-0.4c-0.1-0.1-0.2-0.1-0.4-0.1c-0.2,0-0.4,0-0.6,0.1l-0.1-0.3l2.6-1H549.4z
		 M548.6-21.4c0.3,0,0.5,0.1,0.7,0.3c0.2,0.2,0.3,0.4,0.3,0.7s-0.1,0.5-0.3,0.7c-0.2,0.2-0.4,0.3-0.7,0.3s-0.5-0.1-0.7-0.3
		s-0.3-0.4-0.3-0.7s0.1-0.5,0.3-0.7C548.1-21.3,548.3-21.4,548.6-21.4z M555.9-16.9c1.3,0,2.3,0.5,3.1,1.5c0.7,0.8,1,1.8,1,2.9
		c0,0.8-0.2,1.5-0.5,2.3c-0.4,0.8-0.9,1.4-1.5,1.8s-1.4,0.6-2.1,0.6c-1.3,0-2.3-0.5-3.1-1.5c-0.6-0.9-1-1.8-1-2.9
		c0-0.8,0.2-1.6,0.6-2.3c0.4-0.8,0.9-1.3,1.5-1.7C554.5-16.8,555.2-16.9,555.9-16.9z M557.3-15.5c-0.4-0.6-1-0.9-1.7-0.9
		c-0.3,0-0.7,0.1-1,0.3c-0.3,0.2-0.6,0.5-0.8,1c-0.2,0.5-0.3,1.1-0.3,1.9c0,1.2,0.2,2.3,0.7,3.2c0.5,0.9,1.1,1.3,1.9,1.3
		c0.6,0,1.1-0.2,1.5-0.7c0.4-0.5,0.6-1.3,0.6-2.6C558.3-13.4,557.9-14.6,557.3-15.5L557.3-15.5z M563.7-15.1c1-1.2,1.9-1.8,2.8-1.8
		c0.5,0,0.9,0.1,1.2,0.3s0.6,0.6,0.8,1.1c0.1,0.4,0.2,0.9,0.2,1.7v3.6c0,0.5,0,0.9,0.1,1.1c0.1,0.2,0.2,0.3,0.3,0.4
		c0.2,0.1,0.4,0.1,0.8,0.1v0.3h-4.2v-0.3h0.2c0.4,0,0.7-0.1,0.8-0.2s0.3-0.3,0.3-0.5c0-0.1,0-0.4,0-0.9v-3.5c0-0.8-0.1-1.3-0.3-1.7
		c-0.2-0.3-0.5-0.5-1-0.5c-0.7,0-1.5,0.4-2.2,1.2v4.5c0,0.6,0,0.9,0.1,1.1c0.1,0.2,0.2,0.3,0.4,0.4c0.2,0.1,0.5,0.1,0.9,0.1v0.3
		h-4.2v-0.3h0.2c0.4,0,0.7-0.1,0.9-0.3c0.2-0.2,0.2-0.6,0.2-1.3v-3.2c0-1,0-1.6-0.1-1.9s-0.1-0.4-0.2-0.5c-0.1-0.1-0.2-0.1-0.4-0.1
		c-0.2,0-0.4,0-0.6,0.1l-0.1-0.3l2.6-1h0.4V-15.1z M572.5-10c0.3,0,0.5,0.1,0.7,0.3c0.2,0.2,0.3,0.4,0.3,0.7c0,0.3-0.1,0.5-0.3,0.7
		c-0.2,0.2-0.4,0.3-0.7,0.3c-0.3,0-0.5-0.1-0.7-0.3c-0.2-0.2-0.3-0.4-0.3-0.7c0-0.3,0.1-0.5,0.3-0.7C572-9.9,572.2-10,572.5-10z"/>
	<path class="st0" d="M12.6,0.3l0.3,0.5c-1.3,1-2.8,2.5-4.4,4.6c-1.6,2.1-2.9,4-3.7,5.8l-0.7,0.5c-0.6,0.4-1,0.7-1.2,0.9
		c-0.1-0.3-0.3-0.8-0.5-1.4l-0.3-0.6c-0.4-0.9-0.7-1.5-1-1.9C0.8,8.1,0.4,7.8,0.1,7.7C0.7,7,1.3,6.6,1.9,6.6c0.5,0,1,0.6,1.6,1.9
		l0.3,0.6c1-1.8,2.4-3.5,4-5.1C9.4,2.4,11,1.2,12.6,0.3z"/>
	<g class="st0">
		<text transform="matrix(1 0 0 1 13.6118 14.8125)"><tspan x="0" y="0" style="font-family:'TimesNewRomanPSMT'; font-size:19px;">#P7(HN7&amp;&lt;7</tspan><tspan x="107.8" y="0" style="font-family:'TimesNewRomanPSMT'; font-size:19px; letter-spacing:-1;">#</tspan><tspan x="116.3" y="0" style="font-family:'TimesNewRomanPSMT'; font-size:19px; letter-spacing:-1;">G</tspan><tspan x="128.6" y="0" style="font-family:'TimesNewRomanPSMT'; font-size:19px;">-)&lt;&amp;)D&amp;%#Q*7C#:%R;%.H</tspan></text>
	</g>
	<g class="st0">
		<text transform="matrix(1 0 0 1 -1.3222 83.8208)" style="font-family:'TimesNewRomanPSMT'; font-size:19px;">S%&amp;%8H%M#T&amp;&lt;%CH.</text>
	</g>
	<g class="st0">
		<text transform="matrix(1 0 0 1 -1.3222 106.8296)" style="font-family:'TimesNewRomanPSMT'; font-size:19px;">#</text>
	</g>
	<g class="st0">
		<text transform="matrix(1 0 0 1 -1.3222 129.8389)" style="font-family:'TimesNewRomanPSMT'; font-size:19px;">J&lt;/%</text>
	</g>
	<g class="st0">
		<text transform="matrix(1 0 0 1 -1.3222 152.8477)" style="font-family:'TimesNewRomanPSMT'; font-size:19px;">J&lt;C)#!7C&lt;.</text>
	</g>
	<g class="st0">
		<text transform="matrix(1 0 0 1 -1.3222 175.8569)" style="font-family:'TimesNewRomanPSMT'; font-size:19px;">!UJV</text>
	</g>
	<g class="st0">
		<text transform="matrix(1 0 0 1 -1.3222 198.8657)" style="font-family:'TimesNewRomanPSMT'; font-size:19px;">U7.H).#6;(/;M&lt;.</text>
	</g>
	<g class="st0">
		<text transform="matrix(1 0 0 1 167.0176 83.8589)" style="font-family:'TimesNewRomanPSMT'; font-size:19px;">S%&amp;%8H%M#P(%..</text>
	</g>
	<g class="st0">
		<text transform="matrix(1 0 0 1 167.0176 106.8677)" style="font-family:'TimesNewRomanPSMT'; font-size:19px;">#</text>
	</g>
	<path class="st0" d="M175.7,125.7h-4.9l-0.9,2c-0.2,0.5-0.3,0.9-0.3,1.1c0,0.2,0.1,0.4,0.3,0.5c0.2,0.1,0.6,0.2,1.2,0.3v0.3h-4
		v-0.3c0.5-0.1,0.9-0.2,1-0.4c0.3-0.3,0.7-0.9,1-1.8l4.4-10.4h0.3l4.4,10.5c0.4,0.8,0.7,1.4,1,1.6s0.7,0.4,1.2,0.4v0.3h-5v-0.3
		c0.5,0,0.8-0.1,1-0.3c0.2-0.1,0.3-0.3,0.3-0.5c0-0.3-0.1-0.7-0.4-1.3L175.7,125.7z M175.5,125l-2.1-5.1l-2.2,5.1H175.5z
		 M184.1,121.4h3.6c0.7,0,1.1,0,1.3-0.1h0.4v6.6c0,0.7,0.1,1.1,0.2,1.3c0.2,0.2,0.5,0.3,1.1,0.3v0.3h-4.2v-0.3c0.6,0,1-0.1,1.2-0.4
		c0.1-0.2,0.2-0.6,0.2-1.2v-4.5c0-0.6,0-0.9-0.1-1c0-0.1-0.1-0.2-0.3-0.2c-0.1-0.1-0.6-0.1-1.3-0.1h-2.1v5.5c0,0.7,0,1.1,0.1,1.3
		c0.1,0.1,0.2,0.3,0.3,0.4c0.3,0.2,0.5,0.3,0.7,0.3h0.4v0.3h-4.6v-0.3h0.3c0.4,0,0.7-0.1,0.9-0.4c0.2-0.2,0.3-0.8,0.3-1.6v-5.5H181
		v-0.7h1.6c0-1.1,0.2-2,0.5-2.6c0.3-0.6,0.8-1.1,1.4-1.5c0.6-0.4,1.3-0.5,2.1-0.5c0.5,0,1,0.1,1.4,0.3c0.4,0.2,0.8,0.4,1,0.7
		c0.2,0.3,0.3,0.5,0.3,0.8c0,0.2-0.1,0.4-0.2,0.5c-0.1,0.1-0.3,0.2-0.5,0.2c-0.2,0-0.4-0.1-0.5-0.2c-0.1-0.1-0.4-0.4-0.8-0.9
		c-0.2-0.3-0.4-0.5-0.6-0.6c-0.2-0.1-0.4-0.1-0.6-0.1c-0.3,0-0.6,0.1-0.9,0.4c-0.3,0.3-0.5,0.5-0.6,0.9c-0.2,0.4-0.2,1.2-0.2,2.3
		V121.4z M197.4,121.1v2.9h-0.3c-0.2-0.9-0.5-1.5-0.9-1.9c-0.4-0.3-0.8-0.5-1.4-0.5c-0.4,0-0.8,0.1-1,0.3c-0.3,0.2-0.4,0.5-0.4,0.8
		c0,0.3,0.1,0.6,0.3,0.9c0.2,0.3,0.6,0.5,1.2,0.8l1.4,0.7c1.3,0.6,1.9,1.4,1.9,2.4c0,0.8-0.3,1.4-0.9,1.9s-1.2,0.7-2,0.7
		c-0.5,0-1.1-0.1-1.8-0.3c-0.2-0.1-0.4-0.1-0.5-0.1c-0.1,0-0.3,0.1-0.3,0.2h-0.3v-3h0.3c0.2,0.9,0.5,1.5,1,2c0.5,0.4,1,0.7,1.6,0.7
		c0.4,0,0.8-0.1,1-0.4s0.4-0.6,0.4-0.9c0-0.4-0.2-0.8-0.4-1.1c-0.3-0.3-0.9-0.7-1.8-1.1c-0.9-0.4-1.5-0.8-1.8-1.2
		c-0.3-0.4-0.4-0.8-0.4-1.3c0-0.7,0.2-1.3,0.7-1.8c0.5-0.5,1.1-0.7,1.9-0.7c0.3,0,0.7,0.1,1.2,0.2c0.3,0.1,0.5,0.1,0.6,0.1
		c0.1,0,0.2,0,0.2-0.1c0.1,0,0.1-0.1,0.2-0.3H197.4z M201.8,116.7v6.2c0.7-0.8,1.2-1.2,1.6-1.5c0.4-0.2,0.8-0.3,1.2-0.3
		c0.5,0,0.9,0.1,1.2,0.4c0.3,0.3,0.6,0.7,0.8,1.3c0.1,0.4,0.2,1.1,0.2,2.2v3c0,0.5,0,0.9,0.1,1.1c0.1,0.1,0.2,0.3,0.3,0.4
		c0.1,0.1,0.4,0.1,0.8,0.1v0.3h-4.2v-0.3h0.2c0.4,0,0.7-0.1,0.8-0.2c0.2-0.1,0.3-0.3,0.3-0.5c0-0.1,0-0.4,0-0.9v-3
		c0-0.9,0-1.5-0.1-1.8c-0.1-0.3-0.2-0.5-0.5-0.7c-0.2-0.1-0.5-0.2-0.8-0.2c-0.3,0-0.6,0.1-0.9,0.2c-0.3,0.2-0.7,0.5-1.2,1v4.5
		c0,0.6,0,0.9,0.1,1.1c0.1,0.1,0.2,0.3,0.4,0.4c0.2,0.1,0.5,0.1,0.9,0.1v0.3h-4.2v-0.3c0.4,0,0.7-0.1,0.9-0.2
		c0.1-0.1,0.2-0.2,0.3-0.4c0.1-0.2,0.1-0.5,0.1-1.1v-7.7c0-1,0-1.6-0.1-1.8s-0.1-0.4-0.2-0.5c-0.1-0.1-0.2-0.1-0.4-0.1
		c-0.1,0-0.3,0-0.6,0.1l-0.1-0.3l2.5-1H201.8z M213.6,128.7c-0.9,0.7-1.4,1.1-1.6,1.2c-0.3,0.2-0.7,0.2-1.1,0.2
		c-0.6,0-1.1-0.2-1.5-0.6c-0.4-0.4-0.6-0.9-0.6-1.6c0-0.4,0.1-0.8,0.3-1.1c0.3-0.4,0.7-0.8,1.3-1.2c0.6-0.4,1.7-0.8,3.1-1.4v-0.3
		c0-0.8-0.1-1.4-0.4-1.7s-0.7-0.5-1.2-0.5c-0.4,0-0.7,0.1-0.9,0.3c-0.2,0.2-0.4,0.5-0.4,0.7l0,0.5c0,0.3-0.1,0.5-0.2,0.7
		c-0.1,0.2-0.3,0.2-0.6,0.2c-0.2,0-0.4-0.1-0.6-0.2c-0.1-0.2-0.2-0.4-0.2-0.7c0-0.5,0.3-1,0.8-1.5c0.5-0.4,1.3-0.7,2.3-0.7
		c0.8,0,1.4,0.1,1.9,0.4c0.4,0.2,0.6,0.5,0.8,0.9c0.1,0.3,0.2,0.8,0.2,1.6v2.9c0,0.8,0,1.3,0,1.5c0,0.2,0.1,0.3,0.2,0.4
		c0.1,0.1,0.2,0.1,0.2,0.1c0.1,0,0.2,0,0.3-0.1c0.1-0.1,0.4-0.3,0.8-0.7v0.5c-0.7,0.9-1.4,1.4-2,1.4c-0.3,0-0.5-0.1-0.7-0.3
		C213.7,129.5,213.6,129.2,213.6,128.7z M211.7,129c0.5,0,1.1-0.3,1.9-0.9v-3.2c-0.9,0.4-1.5,0.6-1.8,0.8c-0.5,0.3-0.8,0.6-1,0.9
		c-0.2,0.3-0.3,0.6-0.3,1c0,0.4,0.1,0.8,0.4,1.1C211.1,128.8,211.4,129,211.7,129L211.7,129z M221.7,129.9v-0.3h0.5
		c0.5,0,0.9-0.2,1.1-0.5c0.1-0.2,0.2-0.7,0.2-1.4v-8.1c0-0.8-0.1-1.3-0.3-1.5c-0.2-0.3-0.6-0.4-1.1-0.4h-0.5v-0.3h5.1
		c1.9,0,3.3,0.2,4.3,0.6c1,0.4,1.8,1.1,2.4,2.1c0.6,1,0.9,2.1,0.9,3.5c0,1.8-0.5,3.2-1.6,4.4c-1.2,1.3-3,2-5.5,2H221.7z M225.3,129
		c0.8,0.2,1.4,0.3,2,0.3c1.4,0,2.6-0.5,3.6-1.5c0.9-1,1.4-2.4,1.4-4.1c0-1.7-0.5-3.1-1.4-4.1s-2.2-1.5-3.6-1.5
		c-0.6,0-1.2,0.1-1.9,0.3V129z M240.5,128.7c-0.9,0.7-1.4,1.1-1.6,1.2c-0.3,0.2-0.7,0.2-1.1,0.2c-0.6,0-1.1-0.2-1.5-0.6
		c-0.4-0.4-0.6-0.9-0.6-1.6c0-0.4,0.1-0.8,0.3-1.1c0.3-0.4,0.7-0.8,1.3-1.2c0.6-0.4,1.7-0.8,3.1-1.4v-0.3c0-0.8-0.1-1.4-0.4-1.7
		s-0.7-0.5-1.2-0.5c-0.4,0-0.7,0.1-0.9,0.3c-0.2,0.2-0.4,0.5-0.4,0.7l0,0.5c0,0.3-0.1,0.5-0.2,0.7c-0.1,0.2-0.3,0.2-0.6,0.2
		c-0.2,0-0.4-0.1-0.6-0.2c-0.1-0.2-0.2-0.4-0.2-0.7c0-0.5,0.3-1,0.8-1.5c0.5-0.4,1.3-0.7,2.3-0.7c0.8,0,1.4,0.1,1.9,0.4
		c0.4,0.2,0.6,0.5,0.8,0.9c0.1,0.3,0.2,0.8,0.2,1.6v2.9c0,0.8,0,1.3,0,1.5c0,0.2,0.1,0.3,0.2,0.4c0.1,0.1,0.2,0.1,0.2,0.1
		c0.1,0,0.2,0,0.3-0.1c0.1-0.1,0.4-0.3,0.8-0.7v0.5c-0.7,0.9-1.4,1.4-2,1.4c-0.3,0-0.5-0.1-0.7-0.3
		C240.6,129.5,240.5,129.2,240.5,128.7z M238.6,129c0.5,0,1.1-0.3,1.9-0.9v-3.2c-0.9,0.4-1.5,0.6-1.8,0.8c-0.5,0.3-0.8,0.6-1,0.9
		c-0.2,0.3-0.3,0.6-0.3,1c0,0.4,0.1,0.8,0.4,1.1C238,128.8,238.3,129,238.6,129L238.6,129z M247.1,121.1v6.8c0,0.5,0,0.9,0.1,1.1
		c0.1,0.2,0.2,0.3,0.3,0.4c0.2,0.1,0.4,0.1,0.8,0.1v0.3h-4.1v-0.3c0.4,0,0.7,0,0.8-0.1c0.1-0.1,0.3-0.2,0.3-0.4s0.1-0.5,0.1-1.1
		v-3.3c0-0.9,0-1.5-0.1-1.8c0-0.2-0.1-0.3-0.2-0.4c-0.1-0.1-0.2-0.1-0.4-0.1c-0.2,0-0.4,0-0.6,0.1l-0.1-0.3l2.6-1H247.1z
		 M246.3,116.7c0.3,0,0.5,0.1,0.7,0.3c0.2,0.2,0.3,0.4,0.3,0.7s-0.1,0.5-0.3,0.7c-0.2,0.2-0.4,0.3-0.7,0.3s-0.5-0.1-0.7-0.3
		s-0.3-0.4-0.3-0.7s0.1-0.5,0.3-0.7C245.8,116.8,246,116.7,246.3,116.7z M252.3,116.7V128c0,0.5,0,0.9,0.1,1.1
		c0.1,0.2,0.2,0.3,0.4,0.4c0.2,0.1,0.5,0.1,0.9,0.1v0.3h-4.2v-0.3c0.4,0,0.7,0,0.8-0.1c0.1-0.1,0.3-0.2,0.3-0.4
		c0.1-0.2,0.1-0.5,0.1-1.1v-7.7c0-1,0-1.5-0.1-1.8c0-0.2-0.1-0.4-0.2-0.4c-0.1-0.1-0.2-0.1-0.4-0.1c-0.2,0-0.4,0-0.6,0.1l-0.2-0.3
		l2.5-1H252.3z M254.2,121.4h4v0.3H258c-0.3,0-0.5,0.1-0.6,0.2s-0.2,0.3-0.2,0.4c0,0.2,0.1,0.6,0.3,1l2.1,4.3l1.9-4.7
		c0.1-0.3,0.2-0.5,0.2-0.8c0-0.1,0-0.2-0.1-0.3c0-0.1-0.1-0.1-0.2-0.2c-0.1,0-0.3-0.1-0.6-0.1v-0.3h2.8v0.3c-0.2,0-0.4,0.1-0.5,0.1
		c-0.1,0.1-0.3,0.2-0.4,0.4c-0.1,0.1-0.2,0.3-0.3,0.7l-3.5,8.5c-0.3,0.8-0.8,1.4-1.3,1.9c-0.5,0.4-1.1,0.6-1.6,0.6
		c-0.4,0-0.7-0.1-0.9-0.3c-0.2-0.2-0.4-0.5-0.4-0.7c0-0.3,0.1-0.5,0.3-0.6c0.2-0.2,0.4-0.2,0.7-0.2c0.2,0,0.5,0.1,0.8,0.2
		c0.2,0.1,0.4,0.1,0.5,0.1c0.2,0,0.4-0.1,0.6-0.3c0.2-0.2,0.4-0.6,0.7-1.1l0.6-1.5l-3.1-6.4c-0.1-0.2-0.2-0.4-0.4-0.7
		c-0.2-0.2-0.3-0.4-0.4-0.4c-0.1-0.1-0.4-0.2-0.7-0.3V121.4z"/>
	<g class="st0">
		<text transform="matrix(1 0 0 1 167.0176 152.8857)" style="font-family:'TimesNewRomanPSMT'; font-size:19px;">&quot;J:QSS&quot;G</text>
	</g>
	<g class="st0">
		<text transform="matrix(1 0 0 1 167.0176 175.8945)"><tspan x="0" y="0" style="font-family:'TimesNewRomanPSMT'; font-size:19px; letter-spacing:-1;">O</tspan><tspan x="12.2" y="0" style="font-family:'TimesNewRomanPSMT'; font-size:19px;">7CM%(W&lt;C%</tspan></text>
	</g>
	<path class="st1" d="M815,216.3h-26v17.6h24.2c13.2,0,16.2-3.4,16.2-8.7C829.4,219.8,826.6,216.5,815,216.3 M812.9,189H789v15.6
		h23.9c12.2,0,14.3-3.2,14.3-7.8C827.2,192.5,825.1,189,812.9,189 M762.7,245.6v-68.3h64.5c12.4,0,20,2.7,24.4,7.2
		c3.2,3.4,4.4,8.2,4.1,12.3c-0.5,8.4-8.2,13.7-13.5,13.7c7.7,0.5,14.5,5.2,15.4,14.1c0.7,6.6-2.1,12.9-7.9,16.6
		c-5,3.2-12.3,4.4-22.4,4.4H762.7z"/>
	<polygon class="st1" points="619,245.6 578.6,199.5 578.6,245.6 551.7,245.6 551.7,177.3 578.6,177.3 619,223.7 619,177.3 
		645.9,177.3 645.9,245.6 	"/>
	<path class="st1" d="M680.3,211.7c-0.1,13.9,8.8,24.4,23.8,24.3c14.9,0.1,24-10.4,23.7-24.3c0.3-13.7-8.8-24.6-23.7-24.4
		C689.2,187,680.2,198,680.3,211.7 M681.6,245.3c-5.3-1.6-10.4-3.8-14.4-6.6c-4.3-2.8-7.6-6.2-10-10c-2.5-3.9-5.3-9.3-5.3-17.1
		c0-7.8,2.8-13.5,5.3-17.4c2.4-3.8,5.6-7.1,10-10c4.1-2.8,9.1-5.1,14.4-6.7c5.5-1.7,13.7-2.4,22.6-2.4c8.8,0,17,0.7,22.6,2.4
		c5.3,1.6,10.2,3.9,14.4,6.7c4.2,2.9,7.4,6.2,10,10c2.5,3.9,5.3,9.6,5.3,17.4c0,7.8-2.8,13.2-5.3,17.1c-2.5,3.8-5.7,7.2-10,10
		c-4.2,2.8-9.1,5-14.4,6.6c-5.6,1.7-13.7,2.4-22.6,2.4C695.3,247.8,687.1,247,681.6,245.3"/>
</g>
</svg>
