<?xml version="1.0" encoding="utf-8"?>
<!-- Generator: Adobe Illustrator 19.0.0, SVG Export Plug-In . SVG Version: 6.00 Build 0)  -->
<svg version="1.1" id="Layer_1" xmlns="http://www.w3.org/2000/svg" xmlns:xlink="http://www.w3.org/1999/xlink" x="0px" y="0px"
	 viewBox="0 0 305.9 72.9" style="enable-background:new 0 0 305.9 72.9;" xml:space="preserve">
<style type="text/css">
	.st0{fill:#251F21;}
	.st1{clip-path:url(#SVGID_2_);fill:#251F21;}
	.st2{clip-path:url(#SVGID_4_);fill:#251F21;}
</style>
<polygon class="st0" points="67.3,70.7 26.9,24.6 26.9,70.7 0,70.7 0,2.4 26.9,2.4 67.3,48.9 67.3,2.4 94.2,2.4 94.2,70.7 "/>
<g>
	<defs>
		<rect id="SVGID_1_" x="-567" y="-371.1" width="1440" height="812"/>
	</defs>
	<clipPath id="SVGID_2_">
		<use xlink:href="#SVGID_1_"  style="overflow:visible;"/>
	</clipPath>
	<path class="st1" d="M128.6,36.8c-0.1,13.9,8.8,24.4,23.8,24.3c14.9,0.1,24-10.4,23.7-24.3c0.3-13.7-8.8-24.6-23.7-24.4
		C137.5,12.2,128.5,23.1,128.6,36.8 M129.9,70.5c-5.3-1.6-10.4-3.8-14.4-6.6c-4.3-2.8-7.6-6.2-10-10c-2.5-3.9-5.3-9.3-5.3-17.1
		c0-7.8,2.8-13.5,5.3-17.4c2.4-3.8,5.6-7.1,10-10c4.1-2.8,9.1-5.1,14.4-6.7c5.5-1.7,13.7-2.4,22.6-2.4c8.8,0,17,0.7,22.6,2.4
		c5.3,1.6,10.2,3.9,14.4,6.7c4.2,2.9,7.4,6.2,10,10c2.5,3.9,5.3,9.6,5.3,17.4c0,7.8-2.8,13.2-5.3,17.1c-2.5,3.8-5.7,7.2-10,10
		c-4.2,2.8-9.1,5-14.4,6.6c-5.6,1.7-13.7,2.4-22.6,2.4C143.6,72.9,135.4,72.2,129.9,70.5"/>
</g>
<g>
	<defs>
		<rect id="SVGID_3_" x="-567" y="-371.1" width="1440" height="812"/>
	</defs>
	<clipPath id="SVGID_4_">
		<use xlink:href="#SVGID_3_"  style="overflow:visible;"/>
	</clipPath>
	<path class="st2" d="M263.3,41.4h-26V59h24.2c13.2,0,16.2-3.4,16.2-8.7C277.7,45,274.9,41.7,263.3,41.4 M261.2,14.1h-23.9v15.6
		h23.9c12.2,0,14.3-3.2,14.3-7.8C275.5,17.7,273.4,14.1,261.2,14.1 M211,70.7V2.4h64.5c12.4,0,20,2.7,24.4,7.2
		c3.2,3.4,4.4,8.2,4.1,12.3c-0.5,8.4-8.2,13.7-13.5,13.7c7.7,0.5,14.5,5.2,15.4,14.1c0.7,6.6-2.1,12.9-7.9,16.6
		c-5,3.2-12.3,4.4-22.4,4.4H211z"/>
</g>
</svg>
